<?xml version="1.0" standalone="no"?>
<!DOCTYPE svg PUBLIC "-//W3C//DTD SVG 1.1//EN" "http://www.w3.org/Graphics/SVG/1.1/DTD/svg11.dtd" >
<svg xmlns="http://www.w3.org/2000/svg">
<metadata>
Created by FontPrep 20130207 at Tue May 13 13:55:25 2014
 By Leo
(c) 1987, 2001 Adobe Systems Incorporated. All rights reserved.
</metadata>
<defs>
<font id="de86ea2e26e072b9ff58568a5967db0b" horiz-adv-x='1024' >
  <font-face 
    font-family="OratorStd-Slanted"
    font-weight="400"
    font-style="oblique"
    font-stretch="normal"
    units-per-em="2048"
    panose-1="2 13 5 9 2 2 3 10 2 4"
    ascent="1366"
    descent="-682"
    x-height="1067"
    cap-height="1366"
    bbox="0 -590 1503 2142"
    underline-thickness="129"
    underline-position="-57"
    slope="-12"
    unicode-range="U+0020-FB02"
  />
<missing-glyph 
d="M344 1239v-1044l348 522zM406 102h696l-348 523zM815 717l348 -522v1044zM754 809l348 522h-696zM242 0v1434h1024v-1434h-1024z" />
    <glyph glyph-name=".notdef" 
d="M344 1239v-1044l348 522zM406 102h696l-348 523zM815 717l348 -522v1044zM754 809l348 522h-696zM242 0v1434h1024v-1434h-1024z" />
    <glyph glyph-name=".null" horiz-adv-x="0" 
 />
    <glyph glyph-name="nonmarkingreturn" 
 />
    <glyph glyph-name="space" unicode=" " 
 />
    <glyph glyph-name="exclam" unicode="!" 
d="M520 0l64 303h188l-63 -303h-189zM768 424h-131l164 942h209z" />
    <glyph glyph-name="quotedbl" unicode="&#x22;" 
d="M977 1384h188l-49 -227l-115 -276h-77l4 276zM655 1384h189l-49 -227l-115 -276h-78l4 276z" />
    <glyph glyph-name="numbersign" unicode="#" 
d="M817 -197h-92l338 1846h90l-119 -658h277l-19 -90h-274l-57 -321h274l-16 -91h-275zM690 1649h90l-331 -1846h-93l125 686h-274l16 91h275l57 321h-274l16 90h274z" />
    <glyph glyph-name="dollar" unicode="$" 
d="M596 281l80 370q-109 29 -164 104t-34 182q20 107 114 183t203 94l36 170h144l-37 -170q156 -14 250 -178l-121 -88q-51 76 -84 104t-72 33l-71 -335q128 -20 200 -100t45 -205q-27 -127 -137 -209t-235 -84l-37 -170h-144l37 170q-89 4 -155 60t-101 142l129 82
q48 -112 99 -138q24 -13 55 -17zM705 788l63 297q-53 -12 -95 -56t-52 -94q-11 -51 13 -91t71 -56zM809 610l-70 -329q72 4 130 49q57 44 71 112t-26 113t-105 55z" />
    <glyph glyph-name="percent" unicode="%" 
d="M711 1282q-100 0 -136 -154q-16 -49 -1 -102t71 -53q98 -1 133 155q16 46 1 100t-68 54zM890 494q106 0 150 -75t21 -181t-98 -182q-75 -74 -181 -74t-149 74t-21 182q23 108 98 182t180 74zM1010 1219q-55 0 -105 18q8 -51 -4 -109q-23 -110 -99 -184t-180 -74
q-105 0 -149 75q-43 75 -20 182t98 183q76 75 182 74q41 0 131 -28q96 -35 160 -35q152 0 256 61l66 -41l-1059 -1359l-109 65l928 1188q-41 -16 -96 -16zM804 84q54 0 87 46t47 108q29 154 -68 153q-55 0 -90 -47t-45 -106q-16 -50 -1 -102q16 -52 70 -52z" />
    <glyph glyph-name="ampersand" unicode="&#x26;" 
d="M810 1151q120 0 179 -81q59 -82 37 -188t-87 -176t-208 -153l143 -272q66 76 103 200l129 -26q-53 -168 -170 -291l59 -117l-121 -76l-53 101q-133 -90 -266 -90t-209 88t-47 223q20 95 85 159t171 130l-20 41q-37 75 -47 115t-1 134q29 125 116 202t207 77zM782 1022
q-66 0 -108 -40q-121 -113 6 -329l49 31q47 29 74 49q27 21 55 57t38 91q11 55 -18 98q-30 43 -96 43zM770 178l-160 305q-74 -43 -112 -84t-54 -113t25 -124t129 -52t172 68z" />
    <glyph glyph-name="quotesingle" unicode="'" 
d="M815 1384h189l-50 -227l-114 -276h-78l4 276z" />
    <glyph glyph-name="parenleft" unicode="(" 
d="M1036 1384l64 -79q-304 -244 -398 -679t109 -681l-98 -82q-127 131 -165 348t11 414q45 215 170 423t307 336z" />
    <glyph glyph-name="parenright" unicode=")" 
d="M682 1305l100 79q127 -129 165 -346t-11 -413q-45 -215 -170 -423t-307 -339l-66 82q303 240 400 680q92 438 -111 680z" />
    <glyph glyph-name="asterisk" unicode="*" 
d="M852 1122q-23 0 -43 -17q-19 -17 -25 -41t8 -40t36 -16q24 0 44 16t26 40t-9 41q-14 17 -37 17zM539 1155l200 -20l-98 151l162 98l65 -192l148 192l117 -98l-160 -151l209 20l-39 -180l-201 18l98 -149l-161 -101l-66 195l-147 -195l-117 101l160 149l-209 -18z" />
    <glyph glyph-name="plus" unicode="+" 
d="M1298 782v-90h-499v-499h-90v499h-500v90h500v500h90v-500h499z" />
    <glyph glyph-name="comma" unicode="," 
d="M606 303h189l-19 -92q-18 -98 -103 -189t-196 -143l-22 113q98 55 125 186z" />
    <glyph glyph-name="hyphen" unicode="-" 
d="M487 469l27 129h455l-27 -129h-455z" />
    <glyph glyph-name="period" unicode="." 
d="M520 0l64 303h188l-63 -303h-189z" />
    <glyph glyph-name="slash" unicode="/" 
d="M358 -55h-94l606 1585h95z" />
    <glyph glyph-name="zero" unicode="0" 
d="M881 1255q-113 0 -188 -89t-99 -170q-24 -80 -45 -188q-22 -108 -41 -196t-30 -196t-6 -167q5 -60 32 -92q28 -32 56 -39t86 -7t100 18q42 19 88 77q82 104 164 482q81 379 37 479q-24 55 -57 72q-34 16 -97 16zM594 -18q-181 0 -232 118q-27 66 -42 117t7 200
q23 150 52 265q61 297 110 410q135 288 420 292q144 0 225 -86q53 -58 65 -193t-42 -350q-16 -69 -17 -75q0 -6 -14 -70t-28 -132q-14 -69 -56 -169q-41 -100 -73 -138q-31 -38 -69 -78t-79 -60q-105 -51 -227 -51z" />
    <glyph glyph-name="one" unicode="1" 
d="M598 123l229 1077l-270 -96l-16 125l465 164l-271 -1270h293l-27 -123h-774l27 123h344z" />
    <glyph glyph-name="two" unicode="2" 
d="M893 1255q-107 -1 -190 -77t-123 -197l-131 18q63 177 185 281t291 104t247 -93t47 -255q-33 -147 -215 -334l-570 -579h588l-27 -123h-762l27 123l645 653q53 53 77 81q69 80 90 177q21 96 -25 159q-47 62 -154 62z" />
    <glyph glyph-name="three" unicode="3" 
d="M709 733q-17 0 -164 -16l24 110l492 416h-569l26 123h758l-27 -123l-461 -387q168 4 262 -90t60 -258q-57 -264 -336 -416q-205 -111 -532 -110l26 129q272 0 394 59t202 145q78 86 102 198t-52 166t-205 54z" />
    <glyph glyph-name="four" unicode="4" 
d="M831 342h-534l428 1051l129 -37l-367 -891h371l148 694h137l-148 -694h109l-27 -123h-108l-72 -342h-137z" />
    <glyph glyph-name="five" unicode="5" 
d="M805 866q156 0 242 -98t51 -264q-55 -264 -330 -420q-182 -102 -535 -102l27 129q290 0 404 55t191 144t99 196t-29 169q-53 62 -153 62t-252 -71h-98l149 700h701l-27 -123h-563l-90 -420q129 43 213 43z" />
    <glyph glyph-name="six" unicode="6" 
d="M639 111q119 0 199 89t108 224q66 315 -162 315q-110 0 -280 -133q-66 -310 -12 -409q27 -49 60 -68q34 -18 87 -18zM911 1255q-72 -1 -130 -37t-95 -83q-85 -108 -149 -377q154 111 294 110q181 0 241 -126t20 -316t-171 -316q-130 -128 -319 -128q-100 0 -164 48
q-63 48 -86 116q-22 68 -22 194q0 127 43 328q154 717 561 716q174 1 276 -118l-100 -113q-98 102 -199 102z" />
    <glyph glyph-name="seven" unicode="7" 
d="M319 29l803 1214h-563l27 123h762l-918 -1393z" />
    <glyph glyph-name="eight" unicode="8" 
d="M610 -18q-166 0 -257 101t-59 249t119 227q87 80 234 148q-94 69 -137 145t-21 184q33 150 152 249t269 99t227 -99q78 -99 45 -249q-23 -110 -100 -186t-199 -143q119 -68 172 -148t24 -211q-35 -164 -169 -265t-300 -101zM881 1255q-94 0 -161 -61t-86 -146t7 -130
t48 -65q22 -19 27 -25q4 -6 32 -26t32 -24q52 26 74 41t50 33t39 30t31 30q44 44 64 131t-21 150q-42 62 -136 62zM638 111q106 0 190 63q107 79 113 218q3 68 -37 117q-40 48 -69 67q-29 20 -51 36t-34 25q-10 -6 -58 -31t-60 -34q-13 -10 -50 -32q-38 -22 -52 -38
q-60 -66 -72 -99q-56 -147 17 -229q57 -64 163 -63z" />
    <glyph glyph-name="nine" unicode="9" 
d="M881 1255q-119 0 -197 -89t-109 -226q-66 -313 162 -313q109 0 279 131q65 299 12 407q-25 51 -59 71q-35 19 -88 19zM608 111q72 1 130 37t96 83q80 102 149 377q-150 -111 -293 -110q-180 0 -239 125t-19 315t168 318q129 128 327 128t245 -189q28 -113 16 -232
q-13 -119 -43 -265q-147 -717 -559 -716q-173 -1 -279 118l103 113q92 -102 198 -102z" />
    <glyph glyph-name="colon" unicode=":" 
d="M643 582l66 303h188l-66 -303h-188zM520 0l64 303h188l-63 -303h-189z" />
    <glyph glyph-name="semicolon" unicode=";" 
d="M666 582l65 303h189l-66 -303h-188zM606 303h189l-19 -92q-18 -98 -103 -189t-196 -143l-22 113q98 55 125 186z" />
    <glyph glyph-name="less" unicode="&#x3c;" 
d="M340 737l776 738l51 -66l-696 -672l696 -671l-51 -66z" />
    <glyph glyph-name="equal" unicode="=" 
d="M1298 645v-90h-1089v90h1089zM1298 920v-91h-1089v91h1089z" />
    <glyph glyph-name="greater" unicode="&#x3e;" 
d="M391 1475l776 -738l-776 -737l-51 66l696 671l-696 672z" />
    <glyph glyph-name="question" unicode="?" 
d="M512 0l63 303h189l-64 -303h-188zM903 1255q-209 0 -319 -282l-127 35q152 377 471 376q160 0 236 -94t44 -252q-24 -108 -92 -186t-168 -152t-126 -105q-26 -32 -42 -116l-6 -28h-141l6 34q20 111 56 162t162 139q26 18 32 24t29 22q24 18 30 25t24 23t26 27q6 9 20 27
t20 32t14 32q7 17 11 36q23 98 -19 160t-141 61z" />
    <glyph glyph-name="at" unicode="@" 
d="M879 797l20 53q-32 0 -81 -16q-48 -16 -81 -43q-47 -45 -89 -117t-55 -134t40 -63q123 1 246 320zM983 477q59 0 114 65q87 104 126 285t-44 305t-266 124t-363 -187q-180 -186 -247 -504q-45 -211 37 -333t273 -122t472 158l21 -129q-272 -158 -537 -157
q-208 0 -336 141q-129 141 -73 446q65 299 270 547q100 121 240 195t291 73q185 0 320 -137t83 -432q-38 -170 -148 -318t-264 -149q-59 0 -87 18t-64 66q-63 -47 -105 -65q-42 -19 -114 -19q-70 0 -111 51q-76 94 42 304q50 91 115 156t164 95t293 25l-116 -309
q-33 -88 -39 -111q-18 -82 53 -82z" />
    <glyph glyph-name="A" unicode="A" 
d="M885 545l-17 639h-4l-286 -639h307zM891 422h-373l-203 -449l-127 37l635 1356h164l57 -1356l-143 -37z" />
    <glyph glyph-name="B" unicode="B" 
d="M690 0h-440l26 123h111l238 1120h-111l27 123h417q121 0 192 -94t34 -264t-197 -250q190 -92 135 -348q-43 -203 -161 -307q-119 -103 -271 -103zM793 805q205 0 251 217q25 123 -24 172t-178 49h-80l-92 -438h123zM711 123q96 0 167 73t101 216q57 270 -186 270h-150
l-119 -559h187z" />
    <glyph glyph-name="C" unicode="C" 
d="M639 -18q-127 0 -199 68t-87 184q-36 275 72 627q67 218 178 356q57 71 145 119t190 48q211 0 287 -221l-131 -69q-49 162 -185 161q-264 0 -385 -572t142 -572q139 0 278 172l96 -78q-184 -223 -401 -223z" />
    <glyph glyph-name="D" unicode="D" 
d="M631 123q57 0 96 8t87 40q140 93 229 508q89 414 -9 516q-30 32 -60 40t-73 8h-145l-238 -1120h113zM895 1366q88 0 148 -17q61 -17 107 -61q156 -150 6 -739q-37 -156 -79 -235q-43 -80 -87 -138q-81 -108 -222 -152q-74 -24 -160 -24h-364l26 123h111l237 1120h-110
l27 123h360z" />
    <glyph glyph-name="E" unicode="E" 
d="M322 0l290 1366h666l-27 -123h-528l-96 -450h436l-25 -123h-436l-117 -547h529l-27 -123h-665z" />
    <glyph glyph-name="F" unicode="F" 
d="M360 0l291 1366h672l-27 -123h-534l-96 -450h448l-24 -123h-449l-143 -670h-138z" />
    <glyph glyph-name="G" unicode="G" 
d="M938 1384q209 0 295 -219l-137 -73q-57 164 -195 163q-79 -1 -147 -65t-112 -168q-77 -181 -112 -346q-121 -565 152 -565q102 0 192 63l89 412h-256l26 123h393l-131 -609q-170 -119 -342 -118q-100 0 -167 47q-68 47 -96 119q-78 196 -1 532q38 188 103 323t122 208
q56 73 142 123t182 50z" />
    <glyph glyph-name="H" unicode="H" 
d="M266 0l291 1366h137l-123 -573h422l123 573h137l-290 -1366h-138l144 670h-422l-144 -670h-137z" />
    <glyph glyph-name="I" unicode="I" 
d="M571 123l238 1120h-184l26 123h508l-26 -123h-187l-237 -1120h186l-27 -123h-508l27 123h184z" />
    <glyph glyph-name="J" unicode="J" 
d="M594 111q82 -1 152 73t94 193l211 989h137l-213 -1004q-39 -184 -161 -282t-262 -98t-215 98t-36 289l27 127h137l-29 -138q-8 -57 -6 -112t42 -95t122 -40z" />
    <glyph glyph-name="K" unicode="K" 
d="M760 1366l-121 -563h37l508 590l94 -70l-498 -578l299 -702l-129 -70l-288 707h-48l-145 -680h-137l291 1366h137z" />
    <glyph glyph-name="L" unicode="L" 
d="M346 0l291 1366h137l-264 -1243h561l-27 -123h-698z" />
    <glyph glyph-name="M" unicode="M" 
d="M782 786l320 580h172l-250 -1366h-145l215 1139h-4l-379 -686l-88 686h-5l-268 -1139h-143l332 1366h170z" />
    <glyph glyph-name="N" unicode="N" 
d="M258 0l291 1366h172l162 -1149l4 4l59 305l178 840h138l-291 -1366h-172l-162 1151l-4 -4l-60 -309l-178 -838h-137z" />
    <glyph glyph-name="O" unicode="O" 
d="M881 1255q-118 0 -188 -101q-37 -52 -61 -96t-51 -139t-41 -159t-15 -68t-1 -8q-66 -276 -45 -425q20 -148 158 -148q118 0 187 98q36 51 68 109t58 169q110 462 99 598q-16 170 -168 170zM909 1384q147 0 221 -105q121 -172 -10 -677q-32 -146 -58 -204
q-25 -58 -56 -128t-69 -114t-86 -87q-97 -89 -241 -87q-90 0 -150 36t-86 100q-54 129 -36 309q18 181 43 257q147 700 528 700z" />
    <glyph glyph-name="P" unicode="P" 
d="M733 1243l-108 -512l192 2q96 2 164 72t94 199q53 240 -184 239h-158zM920 1366q182 0 259 -94t39 -273t-154 -285t-261 -106h-205l-129 -608h-137l291 1366h297z" />
    <glyph glyph-name="Q" unicode="Q" 
d="M629 111q74 0 127 45l-129 206l123 89l106 -170q86 158 137 397q121 578 -114 577q-233 0 -357 -583q-32 -157 -36 -296q-3 -138 33 -202t110 -63zM905 1384q164 0 238 -171t0 -517t-217 -530l75 -119l-122 -86l-60 96q-102 -76 -209 -75q-160 0 -232 171t1 522
q74 351 218 530t308 179z" />
    <glyph glyph-name="R" unicode="R" 
d="M991 1366q115 0 190 -96t42 -248q-70 -321 -322 -404l158 -585l-135 -60l-172 635h-154l-129 -608h-137l291 1366h368zM825 731q193 0 250 273q53 240 -174 239h-168l-108 -512h200z" />
    <glyph glyph-name="S" unicode="S" 
d="M918 1384q256 0 256 -309l-140 -20q0 201 -145 200q-89 0 -147 -62q-58 -63 -77 -153t11 -137t167 -141q138 -94 170 -157q44 -89 39 -135t-12 -103q-36 -168 -148 -277t-278 -108q-313 0 -270 376l141 19q-6 -78 -2 -136q4 -59 44 -95t125 -36t155 63q91 82 102 243
q2 28 -6 54t-12 44t-25 40q-20 22 -29 33t-39 33t-40 28t-50 32q-132 89 -158 137q-36 70 -35 120q5 207 152 345q110 102 251 102z" />
    <glyph glyph-name="T" unicode="T" 
d="M549 0l264 1243h-295l27 123h721l-27 -123h-289l-264 -1243h-137z" />
    <glyph glyph-name="U" unicode="U" 
d="M608 -18q-152 0 -222 95t-36 249l221 1040h138l-211 -993q-12 -70 -14 -128q-2 -59 35 -97q38 -38 118 -37q117 -1 173 71t83 191l211 993h137l-221 -1034q-33 -160 -146 -255q-114 -95 -266 -95z" />
    <glyph glyph-name="V" unicode="V" 
d="M694 371l500 1022l133 -29l-702 -1391h-33l-109 1391l146 29l61 -1022h4z" />
    <glyph glyph-name="W" unicode="W" 
d="M1200 1393l131 -27l-434 -1393h-59l-52 826h-4l-403 -826h-60l160 1393l144 27l-154 -1026h4l352 718h41l45 -718h4z" />
    <glyph glyph-name="X" unicode="X" 
d="M743 598l-436 -625l-110 58l508 712l-168 586l141 64l125 -510l342 510l112 -64l-417 -586l204 -712l-135 -58z" />
    <glyph glyph-name="Y" unicode="Y" 
d="M762 698l444 695l115 -52l-524 -802l-115 -539h-137l114 539l-182 802l139 52z" />
    <glyph glyph-name="Z" unicode="Z" 
d="M213 0l844 1243h-520l26 123h727l-841 -1243h593l-26 -123h-803z" />
    <glyph glyph-name="bracketleft" unicode="[" 
d="M659 1384h553l-26 -122h-416l-258 -1217h416l-27 -123h-553z" />
    <glyph glyph-name="backslash" unicode="\" 
d="M870 -55l-606 1585h94l607 -1585h-95z" />
    <glyph glyph-name="bracketright" unicode="]" 
d="M1159 1384l-311 -1462h-553l27 123h415l258 1217h-415l26 122h553z" />
    <glyph glyph-name="asciicircum" unicode="^" 
d="M467 731h-102l335 662h107l330 -662h-103l-280 563z" />
    <glyph glyph-name="underscore" unicode="_" 
d="M1229 -221h-1229v74h1229v-74z" />
    <glyph glyph-name="grave" unicode="`" 
d="M786 1423l318 -206l-72 -91l-348 168z" />
    <glyph glyph-name="a" unicode="a" 
d="M854 414l-47 493l-256 -493h303zM866 291h-379l-168 -318l-124 50l559 1044h176l112 -1044l-145 -50z" />
    <glyph glyph-name="b" unicode="b" 
d="M684 0h-434l26 123h111l174 821h-110l26 123h336q387 0 326 -285q-31 -152 -168 -219q83 -27 115 -97t14 -161q-32 -145 -140 -225t-276 -80zM780 610q86 0 143 48q56 48 72 124q35 162 -151 162h-146l-71 -334h153zM684 123q233 0 270 172q18 84 -23 138q-42 54 -136 54
h-193l-78 -364h160z" />
    <glyph glyph-name="c" unicode="c" 
d="M639 -18q-113 0 -185 49t-99 127q-26 78 -30 177q-5 99 21 197q61 289 211 421t305 132q119 0 186 -57t103 -170l-139 -63q-49 162 -176 161q-76 0 -138 -41q-98 -64 -174 -258t-47 -395q10 -70 55 -110t127 -41q83 0 147 43t138 129l96 -78q-188 -223 -401 -223z" />
    <glyph glyph-name="d" unicode="d" 
d="M664 123q137 0 217 92t129 317q39 162 23 253q-15 91 -62 125t-137 34h-142l-174 -821h146zM827 1067q233 0 313 -116t17 -404q-70 -337 -216 -452q-121 -95 -341 -95h-356l26 123h111l174 821h-111l27 123h356z" />
    <glyph glyph-name="e" unicode="e" 
d="M322 0l227 1067h665l-26 -123h-529l-67 -319h436l-27 -123h-436l-80 -379h529l-27 -123h-665z" />
    <glyph glyph-name="f" unicode="f" 
d="M360 0l228 1067h672l-27 -123h-535l-67 -319h448l-26 -123h-449l-106 -502h-138z" />
    <glyph glyph-name="g" unicode="g" 
d="M1096 569l-101 -471q-172 -117 -352 -116q-113 0 -185 48q-127 85 -124 306q0 92 22 199q50 225 180 388t338 162q104 0 182 -55t115 -149l-131 -76q-61 152 -202 151q-74 0 -136 -42q-138 -94 -202 -384q-14 -90 -22 -183t38 -165q45 -72 150 -72t206 56l60 280h-256
l26 123h394z" />
    <glyph glyph-name="h" unicode="h" 
d="M266 0l228 1067h137l-94 -442h421l95 442h137l-227 -1067h-138l107 502h-422l-107 -502h-137z" />
    <glyph glyph-name="i" unicode="i" 
d="M395 0l27 123h149l174 821h-149l27 123h438l-27 -123h-151l-174 -821h151l-26 -123h-439z" />
    <glyph glyph-name="j" unicode="j" 
d="M546 -18q-168 0 -227 100q-57 100 -12 315h137q-37 -155 -6 -221t135 -66t170 58q66 57 86 156l158 743h137l-163 -770q-27 -127 -137 -221t-278 -94z" />
    <glyph glyph-name="k" unicode="k" 
d="M696 1067l-96 -455h51l469 482l86 -82l-450 -449l309 -502l-123 -88l-319 527h-48l-106 -500h-137l227 1067h137z" />
    <glyph glyph-name="l" unicode="l" 
d="M348 0l227 1067h138l-201 -944h559l-27 -123h-696z" />
    <glyph glyph-name="m" unicode="m" 
d="M678 301l-119 563h-4l-211 -864h-145l270 1067h180l94 -463l291 463h180l-184 -1067h-145l157 864h-4z" />
    <glyph glyph-name="n" unicode="n" 
d="M258 0l227 1067h170l222 -899l6 4l47 277l131 618h137l-227 -1067h-170l-223 899l-5 -4l-47 -279l-131 -616h-137z" />
    <glyph glyph-name="o" unicode="o" 
d="M817 956q-231 0 -325 -424q-88 -422 145 -421q74 0 133 42q59 43 96 113q71 135 100 271q29 137 15 265q-8 70 -49 112t-115 42zM628 -18q-88 0 -144 26t-103 88q-89 119 -33 436q62 291 202 422t290 131t236 -117q85 -117 30 -436q-24 -111 -69 -215q-46 -104 -96 -169
q-50 -66 -138 -116q-87 -50 -175 -50z" />
    <glyph glyph-name="p" unicode="p" 
d="M780 582q205 0 246 184q20 100 -26 139t-142 39h-188l-78 -362h188zM891 1067q174 0 242 -82q68 -83 37 -225t-140 -222t-233 -79h-230l-98 -459h-137l227 1067h332z" />
    <glyph glyph-name="q" unicode="q" 
d="M817 956q-231 0 -325 -424q-88 -422 145 -421q60 -1 113 28l-144 162l105 94l139 -157q78 123 112 280t19 284q-8 70 -49 112t-115 42zM837 1085q153 0 239 -117q85 -117 30 -436q-55 -256 -172 -389l96 -110l-104 -92l-97 108q-104 -68 -219 -67q-144 0 -231 116
t-31 434q60 285 198 419t291 134z" />
    <glyph glyph-name="r" unicode="r" 
d="M895 1067q143 0 216 -72t42 -219q-23 -100 -101 -185t-180 -114l170 -432l-135 -72l-170 484h-198l-97 -457h-137l227 1067h363zM745 580q102 0 174 53q71 53 89 136t-19 129t-125 46h-221l-78 -364h180z" />
    <glyph glyph-name="s" unicode="s" 
d="M647 111q88 0 164 53t81 167q1 19 -5 35t-10 27q-5 13 -19 25t-24 22t-36 21q-63 29 -83 37l-40 18q-146 64 -171 112q-8 14 -18 34q-26 49 -7 143q27 129 133 205t240 75q256 0 268 -268l-139 -39q-4 178 -160 178q-72 0 -130 -36q-59 -36 -71 -94q-21 -98 37 -140
q23 -16 68 -37l207 -100q131 -84 97 -242q-33 -157 -145 -241t-260 -84t-224 86q-74 86 -68 231l131 39q-4 -227 184 -227z" />
    <glyph glyph-name="t" unicode="t" 
d="M549 0l201 944h-295l26 123h721l-26 -123h-289l-201 -944h-137z" />
    <glyph glyph-name="u" unicode="u" 
d="M638 111q112 0 166 53t81 176l155 727h138l-170 -793q-27 -120 -130 -206q-104 -86 -268 -86t-230 87t-40 214l168 784h137l-156 -727q-25 -121 5 -175q32 -54 144 -54z" />
    <glyph glyph-name="v" unicode="v" 
d="M680 311l459 783l118 -50l-636 -1071h-25l-182 1071l143 50z" />
    <glyph glyph-name="w" unicode="w" 
d="M420 1077l145 17l-78 -750h5l288 524h37l68 -524h4l244 750l135 -17l-389 -1104h-48l-83 658l-363 -658h-47z" />
    <glyph glyph-name="x" unicode="x" 
d="M709 444l-385 -471l-109 70l442 522l-204 457l141 72l166 -406l342 406l108 -72l-397 -457l217 -522l-137 -70z" />
    <glyph glyph-name="y" unicode="y" 
d="M731 545l402 549l112 -68l-475 -614l-88 -412h-137l88 412l-215 614l145 68z" />
    <glyph glyph-name="z" unicode="z" 
d="M213 0l760 944h-500l27 123h727l-756 -944h571l-26 -123h-803z" />
    <glyph glyph-name="braceleft" unicode="{" 
d="M1178 1333q-144 0 -198 -44t-79 -161l-61 -286q-14 -59 -24 -89t-38 -68q-29 -38 -78 -62q96 -58 48 -215l-60 -287q-25 -117 13 -162t178 -45h47l-11 -51h-67q-206 1 -266 63t-25 224l57 270q10 47 11 77q0 30 -5 47q-11 36 -114 61q-37 9 -64 18q31 10 81 23
q51 14 69 20t45 25t39 51t24 85l58 273q34 154 116 220t250 64h115l-12 -51h-49z" />
    <glyph glyph-name="bar" unicode="|" 
d="M709 -590v2212h90v-2212h-90z" />
    <glyph glyph-name="braceright" unicode="}" 
d="M315 -86q143 0 198 44q54 44 79 161l61 287q12 57 23 88q10 30 40 68t79 63q-97 58 -50 215l62 286q25 117 -14 162t-179 45h-47l13 51h67q207 0 267 -62t24 -224l-57 -271q-18 -85 -7 -119t62 -52q16 -5 53 -14t64 -17q-31 -9 -81 -23t-68 -20t-46 -26q-27 -20 -39 -51
q-12 -32 -24 -85l-60 -273q-35 -157 -115 -221t-249 -63h-115l10 51h49z" />
    <glyph glyph-name="asciitilde" unicode="~" 
d="M506 776q-54 0 -102 -33t-73 -66t-67 -106l-63 47q139 248 297 248q90 0 269 -76t241 -77q62 0 130 57q66 57 103 133l66 -47q-51 -96 -132 -165t-176 -68q-61 1 -250 77t-243 76z" />
    <glyph glyph-name="uni00A0" unicode="&#xa0;" 
 />
    <glyph glyph-name="exclamdown" unicode="&#xa1;" 
d="M868 942l-159 -942h-209l237 942h131zM735 1063l66 303h188l-65 -303h-189z" />
    <glyph glyph-name="cent" unicode="&#xa2;" 
d="M618 279l175 821q-197 -70 -270 -412t95 -409zM725 139l-33 -157h-137l35 161q-115 25 -173 114t-59 200q0 111 21 231q27 128 77 234t145 197t220 116l33 149h137l-33 -147q84 -11 142 -73t84 -148l-137 -66q-39 121 -117 152l-176 -830q106 25 223 166l96 -78
q-166 -201 -348 -221z" />
    <glyph glyph-name="sterling" unicode="&#xa3;" 
d="M930 1262q-98 0 -172 -60t-91 -148q-17 -86 -8 -227h377l-26 -122h-340q0 -13 3 -59t5 -91q6 -142 -97 -290q-22 -30 -73 -93q72 16 131 16t141 -38q66 -41 92 -41q51 0 148 73l63 -90q-140 -110 -235 -110q-55 0 -129 38q-73 38 -147 39q-74 0 -234 -77l-53 96
q127 154 176 230t64 146t5 251h-217l27 122h182q-14 164 0 228q31 141 157 235t259 94t216 -63t103 -174l-135 -45q-41 160 -192 160z" />
    <glyph glyph-name="currency" unicode="&#xa4;" 
d="M758 346q166 0 278 113t113 279q0 166 -113 279q-112 113 -278 113t-279 -114t-113 -279q0 -167 114 -279q112 -112 278 -112zM758 1208q172 0 303 -106l221 219l68 -66l-224 -219q102 -139 102 -299t-102 -299l224 -219l-68 -65l-221 219q-131 -107 -303 -107t-303 107
l-222 -219l-67 65l223 219q-102 139 -102 299t102 299l-223 219l67 66l222 -219q131 106 303 106z" />
    <glyph glyph-name="yen" unicode="&#xa5;" 
d="M877 670h249l-26 -123h-301l-117 -547h-137l117 547h-300l27 123h250l-162 671l139 52l146 -695l444 695l115 -52z" />
    <glyph glyph-name="brokenbar" unicode="&#xa6;" 
d="M709 147h90v-737h-90v737zM709 1622h90v-737h-90v737z" />
    <glyph glyph-name="section" unicode="&#xa7;" 
d="M866 275v24q0 10 -6 20q-6 9 -9 17t-14 17t-16 16t-22 15q-17 10 -35 20t-19 10l-88 51q-117 68 -149 100q-66 69 -41 185t143 188q-70 74 -46 188t132 186t218 72t182 -58t90 -152l-133 -54q-29 141 -160 142q-68 0 -120 -38t-66 -104q2 -23 -2 -35t9 -29q13 -16 17 -24
q3 -8 23 -20t27 -18t27 -15l28 -14l79 -45q162 -89 180 -164q9 -39 -1 -88q-27 -125 -154 -207q94 -84 68 -206t-138 -198q-114 -75 -242 -75t-210 72t-90 196l147 47q8 -86 55 -139q46 -54 126 -54t145 43q65 44 65 128zM831 807l-131 74q-76 -61 -91 -135t57 -115
l186 -111q80 53 96 133q8 37 -13 71q-22 34 -41 47q-20 13 -63 36z" />
    <glyph glyph-name="dieresis" unicode="&#xa8;" 
d="M1100 1393q47 0 63 -40t6 -89t-44 -89t-81 -40t-64 40t-7 89t45 89t82 40zM723 1393q47 0 63 -40t6 -89t-43 -89q-34 -40 -81 -40t-65 40q-17 40 -7 89t45 89t82 40z" />
    <glyph glyph-name="copyright" unicode="&#xa9;" 
d="M872 1094q111 0 171 -71t53 -194h-103q8 162 -141 162q-115 0 -192 -81q-76 -81 -104 -215t14 -222t155 -88q156 0 211 172h102q-39 -121 -134 -198t-202 -76q-147 1 -217 117q-71 116 -33 291t153 289q116 114 267 114zM892 1282q-202 0 -391 -165t-243 -421t58 -434
q114 -178 308 -178t390 170q197 170 250 419q54 249 -58 429t-314 180zM911 1384q254 0 386 -204t71 -496q-62 -293 -282 -498q-220 -204 -474 -204t-388 204t-72 497t283 497q222 204 476 204z" />
    <glyph glyph-name="ordfeminine" unicode="&#xaa;" 
d="M389 483l25 113h655l-25 -113h-655zM893 989l-27 199l-108 -199h135zM905 877h-209l-104 -185l-121 41l363 633h143l92 -633l-137 -41z" />
    <glyph glyph-name="guillemotleft" unicode="&#xab;" 
d="M1307 1167l75 -100l-503 -391l335 -393l-116 -103l-416 496zM848 1167l76 -100l-504 -391l336 -393l-117 -103l-416 496z" />
    <glyph glyph-name="logicalnot" unicode="&#xac;" 
d="M1208 354v475h-999v91h1089v-566h-90z" />
    <glyph glyph-name="uni00AD" unicode="&#xad;" 
d="M487 469l27 129h455l-27 -129h-455z" />
    <glyph glyph-name="registered" unicode="&#xae;" 
d="M838 752q147 0 172 114q14 64 -22 82t-116 19h-176l-45 -215h187zM913 1069q242 0 197 -207q-41 -205 -258 -213l131 -360h-121l-119 360h-114l-76 -360h-102l165 780h297zM884 1274q-194 0 -388 -170t-248 -419q-52 -249 62 -425t321 -176t397 171t244 424t-71 424
q-123 171 -317 171zM611 -18q-255 0 -392 204t-75 493t286 493t478 204q255 0 391 -204t74 -494t-284 -493q-223 -203 -478 -203z" />
    <glyph glyph-name="macron" unicode="&#xaf;" 
d="M1165 1200h-587l24 123h588z" />
    <glyph glyph-name="degree" unicode="&#xb0;" 
d="M444 1124q0 -127 92 -218t218 -91q127 0 218 91t91 218t-91 218q-91 92 -218 92q-126 0 -218 -92t-92 -218zM358 1124q0 164 116 280t280 116t280 -116t115 -280q0 -164 -116 -280q-115 -116 -279 -115q-164 -1 -280 115t-116 280z" />
    <glyph glyph-name="plusminus" unicode="&#xb1;" 
d="M1298 186v-90h-1089v90h1089zM1298 879v-91h-499v-499h-90v499h-500v91h500v499h90v-499h499z" />
    <glyph glyph-name="twosuperior" unicode="&#xb2;" 
d="M899 1282q-109 0 -154 -133l-112 14q35 104 108 163q75 58 173 58t150 -48t35 -132t-132 -190l-254 -232h295l-21 -102h-455l17 86l338 311q4 2 10 8q68 63 77 107q10 44 -12 66q-22 24 -63 24z" />
    <glyph glyph-name="threesuperior" unicode="&#xb3;" 
d="M816 1047q-46 0 -124 -13l19 80l223 168h-279l23 102h452l-18 -86l-211 -161q76 -7 121 -57t28 -131t-118 -171q-56 -49 -158 -78t-235 -20l20 102q332 -4 369 170q10 51 -28 73t-84 22z" />
    <glyph glyph-name="acute" unicode="&#xb4;" 
d="M1075 1423l45 -129l-418 -168l-34 91z" />
    <glyph glyph-name="mu" unicode="&#xb5;" 
d="M631 111q106 0 181 91t97 204l142 661h137l-227 -1067h-138l19 90q-98 -108 -228 -108t-188 100l-111 -514h-137l320 1499h137l-150 -705q-30 -197 94 -241q28 -10 52 -10z" />
    <glyph glyph-name="paragraph" unicode="&#xb6;" 
d="M903 1384h504l-27 -122h-94l-297 -1399h-137l297 1399h-174l-297 -1399h-137l153 729q-188 -14 -298 96t-70 297q86 399 577 399z" />
    <glyph glyph-name="periodcentered" unicode="&#xb7;" 
d="M655 737q0 43 30 73t73 30q42 0 72 -30t30 -73t-30 -73t-72 -29q-42 -1 -73 29q-30 30 -30 73z" />
    <glyph glyph-name="cedilla" unicode="&#xb8;" 
d="M560 -389q-74 0 -193 59l63 105q74 -41 139 -41t75 39t-39 53q-56 14 -122 14l109 187h123l-62 -113q70 -4 109 -41q38 -37 24 -105t-83 -113q-69 -44 -143 -44z" />
    <glyph glyph-name="onesuperior" unicode="&#xb9;" 
d="M741 782l99 465l-135 -43l-17 92l307 97l-131 -611h119l-20 -102h-394l21 102h151z" />
    <glyph glyph-name="ordmasculine" unicode="&#xba;" 
d="M887 1272q-127 0 -175 -224t76 -225q130 1 178 225t-79 224zM909 1384q135 0 181 -98t15 -238q-30 -140 -117 -238t-222 -99q-135 0 -178 97q-44 98 -14 240t115 239t220 97zM389 483l25 113h655l-25 -113h-655z" />
    <glyph glyph-name="guillemotright" unicode="&#xbb;" 
d="M877 1167l415 -491l-624 -496l-76 103l504 393l-336 391zM418 1167l416 -491l-625 -496l-76 103l504 393l-336 391z" />
    <glyph glyph-name="onequarter" unicode="&#xbc;" 
d="M1239 1393l94 -60l-1061 -1360l-96 54zM403 782l99 465l-135 -43l-17 92l307 97l-131 -611h119l-20 -102h-394l21 102h151zM1010 160h-293l233 547l113 -21l-184 -424h151l72 332h123l-72 -332h57l-20 -102h-57l-35 -160h-123z" />
    <glyph glyph-name="onehalf" unicode="&#xbd;" 
d="M684 0l18 86l336 311q6 3 20 17l19 19q41 34 49 78t-13 68q-22 24 -62 23q-111 0 -152 -133l-115 14q35 105 109 163t172 58q97 0 151 -48q54 -50 36 -135t-132 -187l-254 -232h295l-22 -102h-455zM1247 1393l94 -60l-1060 -1360l-97 54zM418 782l98 465l-135 -43l-16 92
l307 97l-131 -611h118l-20 -102h-393l20 102h152z" />
    <glyph glyph-name="threequarters" unicode="&#xbe;" 
d="M507 1047q-46 0 -124 -13l18 80l224 168h-279l23 102h452l-18 -86l-211 -161q76 -7 121 -57t28 -130t-118 -171q-55 -50 -157 -78t-237 -19l21 102q332 -4 368 168q10 51 -27 73q-38 22 -84 22zM1241 1393l94 -60l-1061 -1360l-96 54zM1012 160h-293l233 547l113 -21
l-184 -424h151l72 332h123l-72 -332h57l-20 -102h-57l-35 -160h-123z" />
    <glyph glyph-name="questiondown" unicode="&#xbf;" 
d="M752 1063l65 303h189l-66 -303h-188zM614 111q211 0 322 282l127 -35q-156 -377 -471 -376q-160 0 -237 94t-44 252q23 108 91 186t168 152q102 74 128 105q26 32 41 116l6 28h142l-8 -34q-27 -113 -58 -159t-118 -110t-119 -88q-32 -25 -74 -80q-43 -54 -59 -132
t25 -140q42 -61 138 -61z" />
    <glyph glyph-name="Agrave" unicode="&#xc0;" 
d="M827 1722l318 -206l-72 -91l-348 168zM885 545l-17 639h-4l-286 -639h307zM891 422h-373l-203 -449l-127 37l635 1356h164l57 -1356l-143 -37z" />
    <glyph glyph-name="Aacute" unicode="&#xc1;" 
d="M1116 1722l45 -129l-418 -168l-34 91zM885 545l-17 639h-4l-286 -639h307zM891 422h-373l-203 -449l-127 37l635 1356h164l57 -1356l-143 -37z" />
    <glyph glyph-name="Acircumflex" unicode="&#xc2;" 
d="M922 1554l-287 -127l-33 74l352 209l267 -209l-64 -74zM885 545l-17 639h-4l-286 -639h307zM891 422h-373l-203 -449l-127 37l635 1356h164l57 -1356l-143 -37z" />
    <glyph glyph-name="Atilde" unicode="&#xc3;" 
d="M834 1683q55 0 119 -59t95 -59t57 32t41 62q15 31 17 33l97 -33q-50 -94 -83 -136q-61 -79 -137 -79t-145 63q-53 53 -88 54q-62 0 -125 -127l-92 39q58 94 93 135q65 75 151 75zM885 545l-17 639h-4l-286 -639h307zM891 422h-373l-203 -449l-127 37l635 1356h164
l57 -1356l-143 -37z" />
    <glyph glyph-name="Adieresis" unicode="&#xc4;" 
d="M1141 1692q47 0 63 -40t6 -89t-44 -89t-81 -40t-64 40t-7 89t45 89t82 40zM764 1692q47 0 63 -40q17 -40 7 -89t-44 -89t-81 -40t-65 40q-17 40 -7 89t45 89t82 40zM885 545l-17 639h-4l-286 -639h307zM891 422h-373l-203 -449l-127 37l635 1356h164l57 -1356l-143 -37z
" />
    <glyph glyph-name="Aring" unicode="&#xc5;" 
d="M954 1653q-40 0 -74 -28q-34 -29 -42 -67t14 -67t60 -29q40 0 74 28t43 68t-13 68t-62 27zM973 1735q75 -1 115 -53t24 -124t-78 -125t-137 -53q-74 0 -115 52q-42 52 -26 126q16 73 80 125t137 52zM885 545l-17 639h-4l-286 -639h307zM891 422h-373l-203 -449l-127 37
l635 1356h164l57 -1356l-143 -37z" />
    <glyph glyph-name="AE" unicode="&#xc6;" 
d="M582 0l90 422h-246l-205 -449l-131 37l633 1356h608l-26 -123h-322l-96 -450h297l-25 -123h-297l-117 -547h322l-27 -123h-458zM698 545l148 698h-55l-312 -698h219z" />
    <glyph glyph-name="Ccedilla" unicode="&#xc7;" 
d="M560 -389q-74 0 -193 59l63 105q74 -41 139 -41t75 39t-39 53q-56 14 -122 14l86 148q-80 14 -132 68t-72 125q-71 252 60 680q67 218 178 356q57 71 145 119t190 48q211 0 287 -221l-131 -69q-49 162 -185 161q-264 0 -385 -572t142 -572q139 0 278 172l96 -78
q-158 -193 -348 -219l-39 -72q70 -4 109 -41q38 -37 24 -105t-83 -113q-69 -44 -143 -44z" />
    <glyph glyph-name="Egrave" unicode="&#xc8;" 
d="M848 1722l317 -206l-71 -91l-349 168zM322 0l290 1366h666l-27 -123h-528l-96 -450h436l-25 -123h-436l-117 -547h529l-27 -123h-665z" />
    <glyph glyph-name="Eacute" unicode="&#xc9;" 
d="M1137 1722l45 -129l-418 -168l-35 91zM322 0l290 1366h666l-27 -123h-528l-96 -450h436l-25 -123h-436l-117 -547h529l-27 -123h-665z" />
    <glyph glyph-name="Ecircumflex" unicode="&#xca;" 
d="M942 1554l-287 -127l-32 74l352 209l266 -209l-63 -74zM322 0l290 1366h666l-27 -123h-528l-96 -450h436l-25 -123h-436l-117 -547h529l-27 -123h-665z" />
    <glyph glyph-name="Edieresis" unicode="&#xcb;" 
d="M1161 1692q47 0 63 -40t7 -89q-10 -49 -44 -89t-81 -40t-65 40q-17 40 -7 89t45 89t82 40zM784 1692q48 0 64 -40t6 -89t-44 -89t-81 -40t-64 40t-8 89q10 49 45 89t82 40zM322 0l290 1366h666l-27 -123h-528l-96 -450h436l-25 -123h-436l-117 -547h529l-27 -123h-665z
" />
    <glyph glyph-name="Igrave" unicode="&#xcc;" 
d="M827 1722l318 -206l-72 -91l-348 168zM571 123l238 1120h-184l26 123h508l-26 -123h-187l-237 -1120h186l-27 -123h-508l27 123h184z" />
    <glyph glyph-name="Iacute" unicode="&#xcd;" 
d="M1116 1722l45 -129l-418 -168l-34 91zM571 123l238 1120h-184l26 123h508l-26 -123h-187l-237 -1120h186l-27 -123h-508l27 123h184z" />
    <glyph glyph-name="Icircumflex" unicode="&#xce;" 
d="M922 1554l-287 -127l-33 74l352 209l267 -209l-64 -74zM571 123l238 1120h-184l26 123h508l-26 -123h-187l-237 -1120h186l-27 -123h-508l27 123h184z" />
    <glyph glyph-name="Idieresis" unicode="&#xcf;" 
d="M1141 1692q47 0 63 -40t6 -89t-44 -89t-81 -40t-64 40t-7 89t45 89t82 40zM764 1692q47 0 63 -40q17 -40 7 -89t-44 -89t-81 -40t-65 40q-17 40 -7 89t45 89t82 40zM571 123l238 1120h-184l26 123h508l-26 -123h-187l-237 -1120h186l-27 -123h-508l27 123h184z" />
    <glyph glyph-name="Eth" unicode="&#xd0;" 
d="M631 123q57 0 96 8t87 40q140 93 229 508q89 414 -9 516q-30 32 -60 40t-73 8h-145l-107 -500h162l-27 -122h-161l-105 -498h113zM895 1366q88 0 148 -17q61 -17 107 -61q156 -150 6 -739q-37 -156 -79 -235q-43 -80 -87 -138q-81 -108 -222 -152q-74 -24 -160 -24h-364
l26 123h111l104 498h-110l26 122h111l106 500h-110l27 123h360z" />
    <glyph glyph-name="Ntilde" unicode="&#xd1;" 
d="M834 1683q55 0 119 -59t95 -59t57 32t41 62q15 31 17 33l97 -33q-50 -94 -83 -136q-61 -79 -137 -79t-145 63q-53 53 -88 54q-62 0 -125 -127l-92 39q58 94 93 135q65 75 151 75zM258 0l291 1366h172l162 -1149l4 4l59 305l178 840h138l-291 -1366h-172l-162 1151l-4 -4
l-60 -309l-178 -838h-137z" />
    <glyph glyph-name="Ograve" unicode="&#xd2;" 
d="M827 1722l318 -206l-72 -91l-348 168zM881 1255q-118 0 -188 -101q-37 -52 -61 -96t-51 -139t-41 -159t-15 -68t-1 -8q-66 -276 -45 -425q20 -148 158 -148q118 0 187 98q36 51 68 109t58 169q110 462 99 598q-16 170 -168 170zM909 1384q147 0 221 -105
q121 -172 -10 -677q-32 -146 -58 -204q-25 -58 -56 -128t-69 -114t-86 -87q-97 -89 -241 -87q-90 0 -150 36t-86 100q-54 129 -36 309q18 181 43 257q147 700 528 700z" />
    <glyph glyph-name="Oacute" unicode="&#xd3;" 
d="M1116 1722l45 -129l-418 -168l-34 91zM881 1255q-118 0 -188 -101q-37 -52 -61 -96t-51 -139t-41 -159t-15 -68t-1 -8q-66 -276 -45 -425q20 -148 158 -148q118 0 187 98q36 51 68 109t58 169q110 462 99 598q-16 170 -168 170zM909 1384q147 0 221 -105
q121 -172 -10 -677q-32 -146 -58 -204q-25 -58 -56 -128t-69 -114t-86 -87q-97 -89 -241 -87q-90 0 -150 36t-86 100q-54 129 -36 309q18 181 43 257q147 700 528 700z" />
    <glyph glyph-name="Ocircumflex" unicode="&#xd4;" 
d="M922 1554l-287 -127l-33 74l352 209l267 -209l-64 -74zM881 1255q-118 0 -188 -101q-37 -52 -61 -96t-51 -139t-41 -159t-15 -68t-1 -8q-66 -276 -45 -425q20 -148 158 -148q118 0 187 98q36 51 68 109t58 169q110 462 99 598q-16 170 -168 170zM909 1384q147 0 221 -105
q121 -172 -10 -677q-32 -146 -58 -204q-25 -58 -56 -128t-69 -114t-86 -87q-97 -89 -241 -87q-90 0 -150 36t-86 100q-54 129 -36 309q18 181 43 257q147 700 528 700z" />
    <glyph glyph-name="Otilde" unicode="&#xd5;" 
d="M834 1683q55 0 119 -59t95 -59t57 32t41 62q15 31 17 33l97 -33q-50 -94 -83 -136q-61 -79 -137 -79t-145 63q-53 53 -88 54q-62 0 -125 -127l-92 39q58 94 93 135q65 75 151 75zM881 1255q-118 0 -188 -101q-37 -52 -61 -96t-51 -139t-41 -159t-15 -68t-1 -8
q-66 -276 -45 -425q20 -148 158 -148q118 0 187 98q36 51 68 109t58 169q110 462 99 598q-16 170 -168 170zM909 1384q147 0 221 -105q121 -172 -10 -677q-32 -146 -58 -204q-25 -58 -56 -128t-69 -114t-86 -87q-97 -89 -241 -87q-90 0 -150 36t-86 100q-54 129 -36 309
q18 181 43 257q147 700 528 700z" />
    <glyph glyph-name="Odieresis" unicode="&#xd6;" 
d="M1141 1692q47 0 63 -40t6 -89t-44 -89t-81 -40t-64 40t-7 89t45 89t82 40zM764 1692q47 0 63 -40q17 -40 7 -89t-44 -89t-81 -40t-65 40q-17 40 -7 89t45 89t82 40zM881 1255q-118 0 -188 -101q-37 -52 -61 -96t-51 -139t-41 -159t-15 -68t-1 -8q-66 -276 -45 -425
q20 -148 158 -148q118 0 187 98q36 51 68 109t58 169q110 462 99 598q-16 170 -168 170zM909 1384q147 0 221 -105q121 -172 -10 -677q-32 -146 -58 -204q-25 -58 -56 -128t-69 -114t-86 -87q-97 -89 -241 -87q-90 0 -150 36t-86 100q-54 129 -36 309q18 181 43 257
q147 700 528 700z" />
    <glyph glyph-name="multiply" unicode="&#xd7;" 
d="M1298 258l-63 -65l-481 481l-482 -481l-63 65l481 479l-481 482l63 63l482 -481l481 481l63 -63l-481 -482z" />
    <glyph glyph-name="Oslash" unicode="&#xd8;" 
d="M389 115l-94 -121l-92 53l149 199q-17 205 66 538q6 29 32 118t49 139q86 178 158 240q123 105 265 104q141 -1 217 -103l90 119l96 -55l-137 -181q31 -174 -35 -481q-24 -118 -67 -247q-42 -129 -82 -195t-92 -129q-111 -133 -287 -131q-75 0 -139 37t-97 96zM651 111
q37 0 64 6t69 37q134 100 223 514q34 158 52 325l2 4h-4l-563 -743v-4q27 -139 157 -139zM895 1255q-51 0 -92 -18q-41 -19 -88 -71q-96 -107 -170 -457q-41 -187 -49 -275l548 723q-35 98 -149 98z" />
    <glyph glyph-name="Ugrave" unicode="&#xd9;" 
d="M827 1722l318 -206l-72 -91l-348 168zM608 -18q-152 0 -222 95t-36 249l221 1040h138l-211 -993q-12 -70 -14 -128q-2 -59 35 -97q38 -38 118 -37q117 -1 173 71t83 191l211 993h137l-221 -1034q-33 -160 -146 -255q-114 -95 -266 -95z" />
    <glyph glyph-name="Uacute" unicode="&#xda;" 
d="M1116 1722l45 -129l-418 -168l-34 91zM608 -18q-152 0 -222 95t-36 249l221 1040h138l-211 -993q-12 -70 -14 -128q-2 -59 35 -97q38 -38 118 -37q117 -1 173 71t83 191l211 993h137l-221 -1034q-33 -160 -146 -255q-114 -95 -266 -95z" />
    <glyph glyph-name="Ucircumflex" unicode="&#xdb;" 
d="M922 1554l-287 -127l-33 74l352 209l267 -209l-64 -74zM608 -18q-152 0 -222 95t-36 249l221 1040h138l-211 -993q-12 -70 -14 -128q-2 -59 35 -97q38 -38 118 -37q117 -1 173 71t83 191l211 993h137l-221 -1034q-33 -160 -146 -255q-114 -95 -266 -95z" />
    <glyph glyph-name="Udieresis" unicode="&#xdc;" 
d="M1141 1692q47 0 63 -40t6 -89t-44 -89t-81 -40t-64 40t-7 89t45 89t82 40zM764 1692q47 0 63 -40q17 -40 7 -89t-44 -89t-81 -40t-65 40q-17 40 -7 89t45 89t82 40zM608 -18q-152 0 -222 95t-36 249l221 1040h138l-211 -993q-12 -70 -14 -128q-2 -59 35 -97
q38 -38 118 -37q117 -1 173 71t83 191l211 993h137l-221 -1034q-33 -160 -146 -255q-114 -95 -266 -95z" />
    <glyph glyph-name="Yacute" unicode="&#xdd;" 
d="M1116 1722l45 -129l-418 -168l-34 91zM762 698l444 695l115 -52l-524 -802l-115 -539h-137l114 539l-182 802l139 52z" />
    <glyph glyph-name="Thorn" unicode="&#xde;" 
d="M752 428q96 0 164 72t96 200q49 240 -185 240h-157l-111 -512h193zM854 1063q182 0 260 -94q78 -95 39 -275t-154 -284t-260 -105h-204l-66 -305h-137l291 1366h137l-66 -303h160z" />
    <glyph glyph-name="germandbls" unicode="&#xdf;" 
d="M772 956q-86 0 -121 -50t-53 -144l-162 -762h-137l182 858q15 76 107 152t219 76t182 -74q55 -72 29 -189q-35 -164 -160 -227q88 -25 123 -106t14 -181q-33 -157 -134 -233t-208 -76h-125l27 123h94q164 0 201 180q24 105 -22 157t-152 48l24 123q68 8 113 58t59 120
q31 147 -100 147z" />
    <glyph glyph-name="agrave" unicode="&#xe0;" 
d="M786 1464l318 -207l-72 -90l-348 168zM854 414l-47 493l-256 -493h303zM866 291h-379l-168 -318l-124 50l559 1044h176l112 -1044l-145 -50z" />
    <glyph glyph-name="aacute" unicode="&#xe1;" 
d="M1075 1464l45 -129l-418 -168l-34 90zM854 414l-47 493l-256 -493h303zM866 291h-379l-168 -318l-124 50l559 1044h176l112 -1044l-145 -50z" />
    <glyph glyph-name="acircumflex" unicode="&#xe2;" 
d="M881 1296l-287 -127l-33 74l352 209l267 -209l-64 -74zM854 414l-47 493l-256 -493h303zM866 291h-379l-168 -318l-124 50l559 1044h176l112 -1044l-145 -50z" />
    <glyph glyph-name="atilde" unicode="&#xe3;" 
d="M793 1425q55 0 119 -59t95 -59t53 26q20 27 28 37t20 36t14 28l97 -33q-50 -94 -83 -136q-61 -79 -137 -79t-145 63q-53 53 -88 54q-62 0 -125 -127l-92 38q60 97 94 137q64 74 150 74zM854 414l-47 493l-256 -493h303zM866 291h-379l-168 -318l-124 50l559 1044h176
l112 -1044l-145 -50z" />
    <glyph glyph-name="adieresis" unicode="&#xe4;" 
d="M1100 1434q47 0 63 -40t6 -89t-44 -89t-81 -40t-64 40t-7 88q10 50 45 90t82 40zM723 1434q47 0 63 -40t6 -89t-43 -89q-34 -40 -81 -40t-65 39q-17 39 -7 89t45 90t82 40zM854 414l-47 493l-256 -493h303zM866 291h-379l-168 -318l-124 50l559 1044h176l112 -1044
l-145 -50z" />
    <glyph glyph-name="aring" unicode="&#xe5;" 
d="M893 1354q-39 0 -74 -28t-43 -66t14 -68q22 -29 62 -29t73 28q34 28 43 68q8 39 -14 67t-61 28zM911 1436q74 0 115 -52t25 -126q-17 -72 -79 -124t-136 -52t-115 52t-26 125t79 125t137 52zM854 414l-47 493l-256 -493h303zM866 291h-379l-168 -318l-124 50l559 1044
h176l112 -1044l-145 -50z" />
    <glyph glyph-name="ae" unicode="&#xe6;" 
d="M596 0l61 291h-280l-166 -318l-125 50l559 1044h680l-27 -123h-364l-68 -319h297l-26 -123h-297l-80 -379h364l-26 -123h-502zM684 414l113 530h-86l-269 -530h242z" />
    <glyph glyph-name="ccedilla" unicode="&#xe7;" 
d="M560 -389q-74 0 -193 59l63 105q74 -41 139 -41t75 39t-39 53q-56 14 -122 14l86 148q-117 18 -179 104t-64 200t20 240q61 289 211 421t305 132q119 0 186 -57t103 -170l-139 -63q-49 162 -176 161q-76 0 -138 -41q-98 -64 -174 -258t-47 -395q10 -70 55 -110t127 -41
q83 0 147 43t138 129l96 -78q-168 -199 -348 -219l-39 -72q70 -4 109 -41q38 -37 24 -105t-83 -113q-69 -44 -143 -44z" />
    <glyph glyph-name="egrave" unicode="&#xe8;" 
d="M786 1464l318 -207l-72 -90l-348 168zM322 0l227 1067h665l-26 -123h-529l-67 -319h436l-27 -123h-436l-80 -379h529l-27 -123h-665z" />
    <glyph glyph-name="eacute" unicode="&#xe9;" 
d="M1075 1464l45 -129l-418 -168l-34 90zM322 0l227 1067h665l-26 -123h-529l-67 -319h436l-27 -123h-436l-80 -379h529l-27 -123h-665z" />
    <glyph glyph-name="ecircumflex" unicode="&#xea;" 
d="M881 1296l-287 -127l-33 74l352 209l267 -209l-64 -74zM322 0l227 1067h665l-26 -123h-529l-67 -319h436l-27 -123h-436l-80 -379h529l-27 -123h-665z" />
    <glyph glyph-name="edieresis" unicode="&#xeb;" 
d="M1100 1434q47 0 63 -40t6 -89t-44 -89t-81 -40t-64 40t-7 88q10 50 45 90t82 40zM723 1434q47 0 63 -40t6 -89t-43 -89q-34 -40 -81 -40t-65 39q-17 39 -7 89t45 90t82 40zM322 0l227 1067h665l-26 -123h-529l-67 -319h436l-27 -123h-436l-80 -379h529l-27 -123h-665z
" />
    <glyph glyph-name="igrave" unicode="&#xec;" 
d="M786 1464l318 -207l-72 -90l-348 168zM395 0l27 123h149l174 821h-149l27 123h438l-27 -123h-151l-174 -821h151l-26 -123h-439z" />
    <glyph glyph-name="iacute" unicode="&#xed;" 
d="M1075 1464l45 -129l-418 -168l-34 90zM395 0l27 123h149l174 821h-149l27 123h438l-27 -123h-151l-174 -821h151l-26 -123h-439z" />
    <glyph glyph-name="icircumflex" unicode="&#xee;" 
d="M881 1296l-287 -127l-33 74l352 209l267 -209l-64 -74zM395 0l27 123h149l174 821h-149l27 123h438l-27 -123h-151l-174 -821h151l-26 -123h-439z" />
    <glyph glyph-name="idieresis" unicode="&#xef;" 
d="M1100 1434q47 0 63 -40t6 -89t-44 -89t-81 -40t-64 40t-7 88q10 50 45 90t82 40zM723 1434q47 0 63 -40t6 -89t-43 -89q-34 -40 -81 -40t-65 39q-17 39 -7 89t45 90t82 40zM395 0l27 123h149l174 821h-149l27 123h438l-27 -123h-151l-174 -821h151l-26 -123h-439z" />
    <glyph glyph-name="eth" unicode="&#xf0;" 
d="M664 123q137 0 217 92t129 317q39 162 23 253q-15 91 -62 125t-137 34h-142l-74 -350h162l-26 -123h-162l-74 -348h146zM827 1067q233 0 313 -116t17 -404q-70 -337 -216 -452q-121 -95 -341 -95h-356l26 123h111l74 348h-111l27 123h110l74 350h-111l27 123h356z" />
    <glyph glyph-name="ntilde" unicode="&#xf1;" 
d="M793 1425q55 0 119 -59t95 -59t53 26q20 27 28 37t20 36t14 28l97 -33q-50 -94 -83 -136q-61 -79 -137 -79t-145 63q-53 53 -88 54q-62 0 -125 -127l-92 38q60 97 94 137q64 74 150 74zM258 0l227 1067h170l222 -899l6 4l47 277l131 618h137l-227 -1067h-170l-223 899
l-5 -4l-47 -279l-131 -616h-137z" />
    <glyph glyph-name="ograve" unicode="&#xf2;" 
d="M786 1464l318 -207l-72 -90l-348 168zM817 956q-231 0 -325 -424q-88 -422 145 -421q74 0 133 42q59 43 96 113q71 135 100 271q29 137 15 265q-8 70 -49 112t-115 42zM628 -18q-88 0 -144 26t-103 88q-89 119 -33 436q62 291 202 422t290 131t236 -117q85 -117 30 -436
q-24 -111 -69 -215q-46 -104 -96 -169q-50 -66 -138 -116q-87 -50 -175 -50z" />
    <glyph glyph-name="oacute" unicode="&#xf3;" 
d="M1075 1464l45 -129l-418 -168l-34 90zM817 956q-231 0 -325 -424q-88 -422 145 -421q74 0 133 42q59 43 96 113q71 135 100 271q29 137 15 265q-8 70 -49 112t-115 42zM628 -18q-88 0 -144 26t-103 88q-89 119 -33 436q62 291 202 422t290 131t236 -117q85 -117 30 -436
q-24 -111 -69 -215q-46 -104 -96 -169q-50 -66 -138 -116q-87 -50 -175 -50z" />
    <glyph glyph-name="ocircumflex" unicode="&#xf4;" 
d="M881 1296l-287 -127l-33 74l352 209l267 -209l-64 -74zM817 956q-231 0 -325 -424q-88 -422 145 -421q74 0 133 42q59 43 96 113q71 135 100 271q29 137 15 265q-8 70 -49 112t-115 42zM628 -18q-88 0 -144 26t-103 88q-89 119 -33 436q62 291 202 422t290 131t236 -117
q85 -117 30 -436q-24 -111 -69 -215q-46 -104 -96 -169q-50 -66 -138 -116q-87 -50 -175 -50z" />
    <glyph glyph-name="otilde" unicode="&#xf5;" 
d="M793 1425q55 0 119 -59t95 -59t53 26q20 27 28 37t20 36t14 28l97 -33q-50 -94 -83 -136q-61 -79 -137 -79t-145 63q-53 53 -88 54q-62 0 -125 -127l-92 38q60 97 94 137q64 74 150 74zM817 956q-231 0 -325 -424q-88 -422 145 -421q74 0 133 42q59 43 96 113
q71 135 100 271q29 137 15 265q-8 70 -49 112t-115 42zM628 -18q-88 0 -144 26t-103 88q-89 119 -33 436q62 291 202 422t290 131t236 -117q85 -117 30 -436q-24 -111 -69 -215q-46 -104 -96 -169q-50 -66 -138 -116q-87 -50 -175 -50z" />
    <glyph glyph-name="odieresis" unicode="&#xf6;" 
d="M1100 1434q47 0 63 -40t6 -89t-44 -89t-81 -40t-64 40t-7 88q10 50 45 90t82 40zM723 1434q47 0 63 -40t6 -89t-43 -89q-34 -40 -81 -40t-65 39q-17 39 -7 89t45 90t82 40zM817 956q-231 0 -325 -424q-88 -422 145 -421q74 0 133 42q59 43 96 113q71 135 100 271
q29 137 15 265q-8 70 -49 112t-115 42zM628 -18q-88 0 -144 26t-103 88q-89 119 -33 436q62 291 202 422t290 131t236 -117q85 -117 30 -436q-24 -111 -69 -215q-46 -104 -96 -169q-50 -66 -138 -116q-87 -50 -175 -50z" />
    <glyph glyph-name="divide" unicode="&#xf7;" 
d="M842 1055q0 -37 -26 -63t-62 -26t-63 26q-26 26 -25 63q0 37 26 63t62 25q36 1 62 -25t26 -63zM842 420q0 -37 -26 -63q-26 -25 -62 -25t-63 26q-26 26 -25 62q0 36 26 62t62 26t62 -26t26 -62zM1298 782v-90h-1089v90h1089z" />
    <glyph glyph-name="oslash" unicode="&#xf8;" 
d="M610 -18q-119 0 -186 65l-59 -80l-95 56l88 116q-63 137 -6 407q56 270 194 405q138 134 300 134q114 0 182 -61l59 78l91 -58l-82 -112q63 -143 6 -413q-56 -269 -194 -403t-298 -134zM635 111q76 0 135 42q59 43 96 113q71 135 99 273q28 139 18 245l-471 -620
q47 -53 123 -53zM822 956q-153 0 -230 -147t-100 -277q-29 -130 -21 -243l469 616q-39 51 -118 51z" />
    <glyph glyph-name="ugrave" unicode="&#xf9;" 
d="M786 1464l318 -207l-72 -90l-348 168zM638 111q112 0 166 53t81 176l155 727h138l-170 -793q-27 -120 -130 -206q-104 -86 -268 -86t-230 87t-40 214l168 784h137l-156 -727q-25 -121 5 -175q32 -54 144 -54z" />
    <glyph glyph-name="uacute" unicode="&#xfa;" 
d="M1075 1464l45 -129l-418 -168l-34 90zM638 111q112 0 166 53t81 176l155 727h138l-170 -793q-27 -120 -130 -206q-104 -86 -268 -86t-230 87t-40 214l168 784h137l-156 -727q-25 -121 5 -175q32 -54 144 -54z" />
    <glyph glyph-name="ucircumflex" unicode="&#xfb;" 
d="M881 1296l-287 -127l-33 74l352 209l267 -209l-64 -74zM638 111q112 0 166 53t81 176l155 727h138l-170 -793q-27 -120 -130 -206q-104 -86 -268 -86t-230 87t-40 214l168 784h137l-156 -727q-25 -121 5 -175q32 -54 144 -54z" />
    <glyph glyph-name="udieresis" unicode="&#xfc;" 
d="M1100 1434q47 0 63 -40t6 -89t-44 -89t-81 -40t-64 40t-7 88q10 50 45 90t82 40zM723 1434q47 0 63 -40t6 -89t-43 -89q-34 -40 -81 -40t-65 39q-17 39 -7 89t45 90t82 40zM638 111q112 0 166 53t81 176l155 727h138l-170 -793q-27 -120 -130 -206q-104 -86 -268 -86
t-230 87t-40 214l168 784h137l-156 -727q-25 -121 5 -175q32 -54 144 -54z" />
    <glyph glyph-name="yacute" unicode="&#xfd;" 
d="M1075 1464l45 -129l-418 -168l-34 90zM731 545l402 549l112 -68l-475 -614l-88 -412h-137l88 412l-215 614l145 68z" />
    <glyph glyph-name="thorn" unicode="&#xfe;" 
d="M733 352q205 0 246 185q20 100 -27 139t-143 39h-188l-76 -363h188zM842 838q174 0 242 -82t36 -224t-140 -223q-108 -80 -232 -80h-230l-49 -229h-137l227 1067h137l-49 -229h195z" />
    <glyph glyph-name="ydieresis" unicode="&#xff;" 
d="M1100 1434q47 0 63 -40t6 -89t-44 -89t-81 -40t-64 40t-7 88q10 50 45 90t82 40zM723 1434q47 0 63 -40t6 -89t-43 -89q-34 -40 -81 -40t-65 39q-17 39 -7 89t45 90t82 40zM731 545l402 549l112 -68l-475 -614l-88 -412h-137l88 412l-215 614l145 68z" />
    <glyph glyph-name="dcroat" unicode="&#x111;" 
d="M834 944h-142l-74 -348h162l-26 -123h-162l-74 -350h146q137 0 217 92t129 317q39 162 23 253q-15 91 -62 125t-137 34zM827 1067q233 0 313 -116t17 -404q-70 -337 -216 -452q-121 -95 -341 -95h-356l26 123h111l74 350h-111l27 123h110l74 348h-111l27 123h356z" />
    <glyph glyph-name="Hbar" unicode="&#x126;" 
d="M645 1141h422l49 225h137l-49 -225h133l-24 -123h-133l-217 -1018h-138l144 670h-422l-144 -670h-137l217 1018h-133l25 123h133l49 225h137zM993 793l49 225h-421l-50 -225h422z" />
    <glyph glyph-name="hbar" unicode="&#x127;" 
d="M932 502h-422l-107 -502h-137l166 782h-143l26 123h144l35 162h137l-35 -162h422l35 162h137l-35 -162h143l-26 -123h-144l-165 -782h-138zM991 782h-422l-32 -157h421z" />
    <glyph glyph-name="dotlessi" unicode="&#x131;" 
d="M395 0l27 123h149l174 821h-149l27 123h438l-27 -123h-151l-174 -821h151l-26 -123h-439z" />
    <glyph glyph-name="IJ" unicode="&#x132;" 
d="M614 496h138q-53 -227 -31 -307q23 -79 115 -78q151 0 208 212q12 40 25 101l201 942h137l-207 -969q-90 -416 -387 -415q-78 0 -125 17t-80 69q-64 102 6 428zM53 0l27 123h151l238 1120h-152l27 123h440l-26 -123h-152l-237 -1120h151l-26 -123h-441z" />
    <glyph glyph-name="ij" unicode="&#x133;" 
d="M815 111q168 0 227 280l144 676h137l-145 -686q-86 -399 -387 -399t-228 364l31 150h137l-24 -123q-53 -262 108 -262zM47 0l27 123h129l174 821h-129l26 123h398l-27 -123h-131l-174 -821h131l-27 -123h-397z" />
    <glyph glyph-name="kgreenlandic" unicode="&#x138;" 
d="M696 1067l-96 -455h51l332 342q91 94 159 112t171 19l-25 -112q-80 3 -122 -15t-113 -90l-297 -305l309 -502l-123 -88l-319 527h-48l-106 -500h-137l227 1067h137z" />
    <glyph glyph-name="Ldot" unicode="&#x13f;" 
d="M1063 623l55 262h168l-55 -262h-168zM346 0l291 1366h137l-264 -1243h561l-27 -123h-698z" />
    <glyph glyph-name="ldot" unicode="&#x140;" 
d="M1040 467l56 252h168l-56 -252h-168zM348 0l227 1067h138l-201 -944h559l-27 -123h-696z" />
    <glyph glyph-name="Lslash" unicode="&#x141;" 
d="M508 623l-221 -76l28 135l222 78l129 606h137l-119 -555l219 78l-29 -137l-219 -78l-116 -551h561l-27 -123h-698z" />
    <glyph glyph-name="lslash" unicode="&#x142;" 
d="M713 1067l-80 -375l383 133l-31 -137l-381 -133l-92 -432h559l-27 -123h-696l107 504l-193 -68l31 137l192 68l90 426h138z" />
    <glyph glyph-name="napostrophe" unicode="&#x149;" 
d="M434 0l228 1067h169l222 -899l6 4l47 277l131 618h137l-227 -1067h-170l-223 899l-4 -4l-48 -279l-131 -616h-137zM473 1366h189l-21 -92q-23 -100 -105 -191q-83 -90 -192 -141l-25 113q100 57 127 186z" />
    <glyph glyph-name="Eng" unicode="&#x14a;" 
d="M926 1384q206 0 257 -114q32 -73 25 -159q-6 -86 -28 -196l-142 -663q-16 -74 -27 -116t-45 -108t-78 -102q-44 -38 -125 -68t-190 -36l27 129q150 6 206 61t95 240l141 663q43 217 10 279q-34 61 -175 61q-185 0 -265 -231l-217 -1024h-137l291 1366h137l-18 -82
q104 100 258 100z" />
    <glyph glyph-name="eng" unicode="&#x14b;" 
d="M813 963q-80 -1 -158 -53t-94 -132l-166 -778h-137l227 1067h138l-17 -78q115 96 269 96t209 -103t43 -236q-17 -197 -58 -358q-67 -264 -140 -357t-124 -117q-112 -53 -223 -53l24 123q68 0 109 13t85 62q84 94 150 418q45 193 34 301t-51 146q-40 39 -120 39z" />
    <glyph glyph-name="OE" unicode="&#x152;" 
d="M668 150l227 1073q-31 33 -97 33t-107 -20q-42 -18 -89 -74q-94 -111 -170 -458q-76 -346 -39 -478q14 -50 52 -83t102 -33t121 40zM526 -18q-120 0 -195 70q-46 43 -81 173q-14 58 -9 153q8 144 46 308q145 698 530 698q84 0 119 -18h442l-26 -123h-316l-96 -450h291
l-25 -123h-291l-116 -547h315l-27 -123h-450q-47 -18 -111 -18z" />
    <glyph glyph-name="oe" unicode="&#x153;" 
d="M635 139l168 789q-41 29 -98 28q-231 0 -326 -424q-88 -422 145 -421q60 -1 111 28zM510 -18q-297 0 -297 356q0 90 23 194q63 293 203 423t294 130q70 0 115 -18h487l-26 -123h-365l-67 -319h299l-27 -123h-299l-80 -379h365l-27 -123h-487q-54 -18 -111 -18z" />
    <glyph glyph-name="Scaron" unicode="&#x160;" 
d="M694 1706l234 -127l289 127l30 -74l-352 -209l-266 209zM918 1384q256 0 256 -309l-140 -20q0 201 -145 200q-89 0 -147 -62q-58 -63 -77 -153t11 -137t167 -141q138 -94 170 -157q44 -89 39 -135t-12 -103q-36 -168 -148 -277t-278 -108q-313 0 -270 376l141 19
q-6 -78 -2 -136q4 -59 44 -95t125 -36t155 63q91 82 102 243q2 28 -6 54t-12 44t-25 40q-20 22 -29 33t-39 33t-40 28t-50 32q-132 89 -158 137q-36 70 -35 120q5 207 152 345q110 102 251 102z" />
    <glyph glyph-name="scaron" unicode="&#x161;" 
d="M653 1448l234 -127l289 127l30 -74l-352 -209l-266 209zM647 111q88 0 164 53t81 167q1 19 -5 35t-10 27q-5 13 -19 25t-24 22t-36 21q-63 29 -83 37l-40 18q-146 64 -171 112q-8 14 -18 34q-26 49 -7 143q27 129 133 205t240 75q256 0 268 -268l-139 -39
q-4 178 -160 178q-72 0 -130 -36q-59 -36 -71 -94q-21 -98 37 -140q23 -16 68 -37l207 -100q131 -84 97 -242q-33 -157 -145 -241t-260 -84t-224 86q-74 86 -68 231l131 39q-4 -227 184 -227z" />
    <glyph glyph-name="Tbar" unicode="&#x166;" 
d="M1239 1243h-289l-98 -459h242l-25 -122h-242l-141 -662h-137l141 662h-241l24 122h242l98 459h-295l27 123h721z" />
    <glyph glyph-name="tbar" unicode="&#x167;" 
d="M1176 944h-289l-64 -301h205l-27 -123h-204l-111 -520h-137l110 520h-204l26 123h205l64 301h-295l26 123h721z" />
    <glyph glyph-name="Ydieresis" unicode="&#x178;" 
d="M1141 1692q47 0 63 -40t6 -89t-44 -89t-81 -40t-64 40t-7 89t45 89t82 40zM764 1692q47 0 63 -40q17 -40 7 -89t-44 -89t-81 -40t-65 40q-17 40 -7 89t45 89t82 40zM762 698l444 695l115 -52l-524 -802l-115 -539h-137l114 539l-182 802l139 52z" />
    <glyph glyph-name="Zcaron" unicode="&#x17d;" 
d="M694 1706l234 -127l289 127l30 -74l-352 -209l-266 209zM213 0l844 1243h-520l26 123h727l-841 -1243h593l-26 -123h-803z" />
    <glyph glyph-name="zcaron" unicode="&#x17e;" 
d="M653 1448l234 -127l289 127l30 -74l-352 -209l-266 209zM213 0l760 944h-500l27 123h727l-756 -944h571l-26 -123h-803z" />
    <glyph glyph-name="florin" unicode="&#x192;" 
d="M279 -152q104 0 153 75q27 40 41 75t37 100l192 580h-219l27 123h233l78 229q45 137 94 205q106 150 281 149h104l-26 -122h-88q-103 0 -154 -75q-35 -52 -78 -175l-71 -211h196l-26 -123h-211l-207 -621q-45 -149 -108 -213t-121 -91t-136 -27h-104l24 122h89z" />
    <glyph glyph-name="circumflex" unicode="&#x2c6;" 
d="M881 1255l-287 -127l-33 74l352 209l267 -209l-64 -74z" />
    <glyph glyph-name="caron" unicode="&#x2c7;" 
d="M653 1407l234 -127l289 127l30 -74l-352 -209l-266 209z" />
    <glyph glyph-name="uni02C9" unicode="&#x2c9;" 
d="M1165 1200h-587l24 123h588z" />
    <glyph glyph-name="breve" unicode="&#x2d8;" 
d="M879 1245q190 0 221 152h123q-29 -125 -124 -190t-235 -65t-214 59q-75 58 -50 196h123q-20 -80 25 -116t131 -36z" />
    <glyph glyph-name="dotaccent" unicode="&#x2d9;" 
d="M911 1393q47 0 63 -40t7 -89q-10 -49 -44 -89t-81 -40t-64 40t-8 89q10 49 45 89t82 40z" />
    <glyph glyph-name="ring" unicode="&#x2da;" 
d="M893 1313q-39 0 -74 -28q-35 -29 -43 -67t14 -67t62 -29t73 28q34 28 43 68q8 40 -14 68t-61 27zM911 1395q74 -1 115 -53t25 -124q-17 -72 -79 -125t-136 -53t-115 52t-26 126q15 73 79 125t137 52z" />
    <glyph glyph-name="ogonek" unicode="&#x2db;" 
d="M453 -362q-90 0 -152 47q-61 47 -41 143q29 139 223 219h201q-6 -4 -90 -50q-174 -95 -188 -165q-18 -82 80 -82t212 53l-26 -120q-129 -45 -219 -45z" />
    <glyph glyph-name="tilde" unicode="&#x2dc;" 
d="M793 1384q55 0 119 -59t95 -59t53 26q20 26 28 36t20 37q12 26 14 28l97 -33q-50 -94 -83 -136q-61 -79 -137 -79t-145 63q-53 53 -88 54q-62 0 -125 -127l-92 39q58 94 93 135q65 75 151 75z" />
    <glyph glyph-name="hungarumlaut" unicode="&#x2dd;" 
d="M1260 1399l59 -119l-418 -168l-45 84zM840 1399l59 -119l-418 -168l-45 84z" />
    <glyph glyph-name="Gamma" unicode="&#x393;" 
d="M618 1366h682l-26 -123h-545l-264 -1243h-137z" />
    <glyph glyph-name="Theta" unicode="&#x398;" 
d="M530 756h486l-25 -123h-485zM873 1262q-131 0 -285 -151t-213 -429q-60 -328 47 -457q199 -247 488 11q75 66 140 182t95 264q55 313 -43 446q-98 134 -229 134zM295 164q-125 182 -57 518q37 172 116 312q143 250 371 347q98 43 184 43q199 0 321 -187t52 -515
q-37 -170 -116 -308t-175 -221q-198 -171 -384 -171q-187 0 -312 182z" />
    <glyph glyph-name="Phi" unicode="&#x3a6;" 
d="M928 1153l-201 -938q157 3 271 149t151 318q38 137 -9 307q-18 70 -74 117t-138 47zM590 213l201 940q-109 0 -203 -81q-170 -147 -221 -394q-36 -142 11 -303q18 -70 74 -116t138 -46zM842 1393h135l-29 -127q111 0 191 -54q81 -54 117 -135q87 -197 36 -391
q-30 -141 -108 -272q-78 -130 -207 -222t-275 -92l-28 -127h-135l26 127q-109 2 -189 54t-117 133q-87 187 -36 391q31 141 109 272q78 132 207 224t274 92z" />
    <glyph glyph-name="uni03A9" unicode="&#x3a9;" 
d="M387 104v5q-109 94 -160 276t-12 385q49 252 221 427t432 175t398 -198q137 -198 77 -498q-37 -182 -153 -332t-256 -235v-5h330l-21 -104h-520l14 78q164 82 300 238t175 356q47 254 -49 426t-309 172q-156 0 -310 -134t-206 -395q-43 -215 28 -402t197 -261l-14 -78
h-520l20 104h338z" />
    <glyph glyph-name="alpha" unicode="&#x3b1;" 
d="M746 1085q132 0 196 -88q63 -88 68 -229h4l172 334l123 -35l-291 -516l29 -551h-136l-4 315h-4q-156 -334 -397 -333q-121 0 -210 111t-38 421q60 283 208 427t280 144zM720 963q-81 0 -177 -119q-95 -119 -139 -321q-44 -203 -2 -311t134 -108t192 132q101 132 142 325
q12 78 14 167q1 89 -41 162t-123 73z" />
    <glyph glyph-name="delta" unicode="&#x3b4;" 
d="M610 -18q-180 0 -263 143t-46 324q47 221 177 337t304 138l-209 276l35 166h600l-26 -123h-473l323 -407q133 -168 91 -366t-187 -344q-146 -144 -326 -144zM637 104q123 0 217 110t123 243t-21 238t-175 105q-126 0 -218 -110q-92 -111 -120 -241q-29 -129 21 -237
t173 -108z" />
    <glyph glyph-name="epsilon" unicode="&#x3b5;" 
d="M618 -18q-190 0 -294 87t-76 224q23 104 120 179t244 108q-98 35 -150 96t-34 143q23 109 149 188t279 78q205 0 287 -92l-105 -84q-23 23 -86 38t-114 16q-236 0 -267 -140q-17 -78 49 -132t195 -56l-27 -123q-133 4 -256 -68t-143 -163q-12 -63 52 -120q65 -56 208 -57
q180 0 350 154l78 -92q-201 -184 -459 -184z" />
    <glyph glyph-name="uni03BC" unicode="&#x3bc;" 
d="M631 111q106 0 181 91t97 204l142 661h137l-227 -1067h-138l19 90q-98 -108 -228 -108t-188 100l-111 -514h-137l320 1499h137l-150 -705q-30 -197 94 -241q28 -10 52 -10z" />
    <glyph glyph-name="pi" unicode="&#x3c0;" 
d="M1286 895h-164l-71 -596q-23 -203 -4 -299h-132q-27 53 0 281l74 614h-344q-37 -213 -120 -494t-154 -401h-131q76 146 156 414t116 481q-160 0 -240 -29l-12 84q100 53 289 54h766z" />
    <glyph glyph-name="sigma" unicode="&#x3c3;" 
d="M756 956q-64 0 -124 -42q-107 -75 -179 -240q-31 -70 -45 -133q-37 -174 12 -302t160 -128q79 0 183 94q52 47 98 136q47 89 67 175t16 159t-19 135t-59 104q-46 42 -110 42zM932 1085h379l-29 -129l-301 23q77 -76 99 -204t-9 -253q-25 -119 -77 -215
q-90 -165 -220 -245t-220 -80q-91 0 -162 51t-101 131q-73 189 -27 373q25 111 85 223q116 215 292 284q80 31 135 36t156 5z" />
    <glyph glyph-name="tau" unicode="&#x3c4;" 
d="M614 944q-125 0 -200 -24l24 114q111 33 185 33h612l-27 -123h-315l-201 -944h-137l201 944h-142z" />
    <glyph glyph-name="uni03D5" unicode="&#x3d5;" 
d="M942 1249l-35 -164q129 -23 192 -156q62 -134 7 -397q-21 -97 -63 -199t-85 -163q-44 -60 -120 -118t-166 -70l-31 -146h-123l31 146q-129 23 -193 155q-63 133 -8 395t175 396t261 157l35 164h123zM877 946l-175 -825q186 55 262 413t-87 412zM580 121l174 827
q-184 -54 -260 -414t86 -413z" />
    <glyph glyph-name="uni2010" unicode="&#x2010;" 
d="M487 469l27 129h455l-27 -129h-455z" />
    <glyph glyph-name="endash" unicode="&#x2013;" 
d="M260 469l27 129h909l-27 -129h-909z" />
    <glyph glyph-name="emdash" unicode="&#x2014;" 
d="M100 469l27 129h1229l-27 -129h-1229z" />
    <glyph glyph-name="underscoredbl" unicode="&#x2017;" 
d="M1229 -442h-1229v73h1229v-73zM1229 -221h-1229v74h1229v-74z" />
    <glyph glyph-name="quoteleft" unicode="&#x2018;" 
d="M836 961h-189l19 92q18 98 103 189t196 142l22 -112q-98 -55 -125 -187z" />
    <glyph glyph-name="quoteright" unicode="&#x2019;" 
d="M834 1366h188l-21 -92q-23 -100 -105 -191q-83 -90 -191 -141l-25 113q100 57 127 186z" />
    <glyph glyph-name="quotesinglbase" unicode="&#x201a;" 
d="M606 303h189l-19 -92q-18 -98 -103 -189t-196 -143l-22 113q98 55 125 186z" />
    <glyph glyph-name="quotereversed" unicode="&#x201b;" 
d="M733 1366h189l-27 -125q-27 -133 45 -186l-70 -113q-88 51 -134 142t-23 190z" />
    <glyph glyph-name="quotedblleft" unicode="&#x201c;" 
d="M686 961h-188l18 92q18 98 104 189t195 142l23 -112q-98 -55 -125 -187zM1067 961h-188l18 92q18 98 103 189t196 142l23 -112q-98 -55 -125 -187z" />
    <glyph glyph-name="quotedblright" unicode="&#x201d;" 
d="M1038 1366h189l-21 -92q-23 -100 -105 -191q-83 -90 -192 -141l-24 113q100 57 127 186zM657 1366h189l-21 -92q-23 -100 -105 -191q-83 -90 -192 -141l-24 113q100 57 127 186z" />
    <glyph glyph-name="quotedblbase" unicode="&#x201e;" 
d="M811 303h188l-18 -92q-18 -98 -103 -189t-196 -143l-23 113q98 55 125 186zM430 303h188l-18 -92q-18 -98 -103 -189t-196 -143l-22 113q98 55 124 186z" />
    <glyph glyph-name="dagger" unicode="&#x2020;" 
d="M688 711l43 155l-244 -12l31 150l242 -13l59 375h174l-100 -375l246 13l-31 -150l-240 12l-22 -155l-172 -711h-117z" />
    <glyph glyph-name="daggerdbl" unicode="&#x2021;" 
d="M737 899l-250 -12l31 147l242 -12l61 344h170l-86 -344l246 12l-31 -147l-246 12l-92 -432l252 12l-33 -149l-239 14l-62 -344h-170l86 344l-247 -14l32 149l244 -12z" />
    <glyph glyph-name="bullet" unicode="&#x2022;" 
d="M479 514q0 104 75 179t177 75t177 -75t75 -178t-74 -177t-179 -74t-178 73t-73 177z" />
    <glyph glyph-name="ellipsis" unicode="&#x2026;" 
d="M930 0l63 303h189l-64 -303h-188zM520 0l64 303h188l-63 -303h-189zM111 0l63 303h188l-63 -303h-188z" />
    <glyph glyph-name="perthousand" unicode="&#x2030;" 
d="M1032 84q90 0 123 154t-57 153q-90 1 -123 -153t57 -154zM1117 494q97 0 133 -77t14 -179t-88 -180q-68 -76 -166 -76t-133 76t-14 180q21 102 89 179t165 77zM669 494q97 0 133 -77t14 -179t-89 -180q-68 -76 -166 -76t-133 76q-36 76 -14 180q22 102 90 179t165 77z
M526 1282q-90 0 -123 -155t58 -154q90 -1 123 154q32 155 -58 155zM792 1219q-48 0 -92 18q6 -53 -12 -132t-86 -157t-165 -78t-132 78t-12 180t91 180q69 77 165 76q53 0 113 -32t170 -31q110 0 206 63l58 -43l-977 -1359l-94 65l854 1188q-39 -16 -87 -16zM584 84
q90 0 123 154t-58 153q-90 1 -123 -153q-32 -154 58 -154z" />
    <glyph glyph-name="guilsinglleft" unicode="&#x2039;" 
d="M1059 1167l76 -100l-504 -391l336 -393l-117 -103l-416 496z" />
    <glyph glyph-name="guilsinglright" unicode="&#x203a;" 
d="M666 1167l415 -491l-624 -496l-76 103l504 393l-336 391z" />
    <glyph glyph-name="exclamdbl" unicode="&#x203c;" 
d="M260 0l64 303h188l-63 -303h-189zM1028 424h-131l164 942h209zM778 0l64 303h188l-63 -303h-189zM508 424h-131l164 942h209z" />
    <glyph glyph-name="uni203E" unicode="&#x203e;" 
d="M1065 1491h-614v74h614v-74z" />
    <glyph glyph-name="fraction" unicode="&#x2044;" 
d="M1243 1393l94 -60l-1061 -1360l-96 54z" />
    <glyph glyph-name="n.superior" unicode="&#x207f;" 
d="M524 672l148 694h131l121 -559l2 2l24 154l86 403h103l-148 -694h-131l-121 555h-4l-24 -154l-84 -401h-103z" />
    <glyph glyph-name="franc" unicode="&#x20a3;" 
d="M115 0l291 1366h548l-26 -123h-412l-96 -450h325l-24 -123h-326l-143 -670h-137zM1167 1067q113 0 167 -72t24 -219q-22 -100 -88 -185t-148 -114l115 -432l-121 -72l-112 484h-146l-96 -457h-123l227 1067h301zM1028 580q78 0 132 52t75 144q35 168 -98 168h-174
l-78 -364h143z" />
    <glyph glyph-name="peseta" unicode="&#x20a7;" 
d="M623 731q93 0 161 72t97 201q53 240 -185 239h-157l-109 -512h193zM725 1366q182 0 259 -94t39 -273t-154 -285t-261 -106h-205l-129 -608h-137l291 1366h297zM895 0l117 549h-158l25 113h436l-25 -113h-155l-117 -549h-123z" />
    <glyph glyph-name="Euro" unicode="&#x20ac;" 
d="M1068 1249q-200 0 -332 -105q-130 -105 -189 -272h674l-68 -114h-647q-12 -37 -22 -87q-9 -51 -11 -61h590l-70 -114h-526q-10 -182 78 -282q89 -100 281 -101q192 0 358 125l-33 -154q-143 -100 -379 -100t-352 129q-115 129 -101 383h-155l67 114h101q0 62 30 148h-143
l68 114h110q86 226 253 368q168 142 406 142t349 -106l-33 -150q-104 123 -304 123z" />
    <glyph glyph-name="uni2113" unicode="&#x2113;" 
d="M705 1049l-101 -467q207 170 330 310t151 279q47 225 -116 226q-75 0 -151 -85t-113 -263zM700 -8q-166 0 -232 102t-42 254q4 16 4 23q-69 -46 -147 -97l-29 80q139 89 201 135l112 537q74 355 303 448q59 24 121 23q131 0 180 -91t19 -226q-37 -178 -192 -354
t-420 -375l-11 -50q-31 -151 25 -227t158 -76q100 0 193 62t159 147l57 -59q-199 -256 -459 -256z" />
    <glyph glyph-name="trademark" unicode="&#x2122;" 
d="M803 1384l-19 -81h-192l-105 -496h-81l104 496h-195l19 81h469zM1485 1384l-123 -577h-82l104 496h-4l-301 -496h-53l-86 496h-4l-105 -496h-81l122 577h140l78 -407l260 407h135z" />
    <glyph glyph-name="Omega" unicode="&#x2126;" 
d="M387 104v5q-109 94 -160 276t-12 385q49 252 221 427t432 175t398 -198q137 -198 77 -498q-37 -182 -153 -332t-256 -235v-5h330l-21 -104h-520l14 78q164 82 300 238t175 356q47 254 -49 426t-309 172q-156 0 -310 -134t-206 -395q-43 -215 28 -402t197 -261l-14 -78
h-520l20 104h338z" />
    <glyph glyph-name="estimated" unicode="&#x212e;" 
d="M1149 567v307q0 23 -16 35q-160 160 -378 160t-376 -164q-16 -16 -17 -37v-301q0 -10 9 -10h770q8 0 8 10zM1376 528h-1005q-8 0 -9 -6v-305q0 -16 15 -35q159 -164 389 -164t391 185h88q-84 -99 -213 -157t-276 -58q-258 0 -440 162q-181 162 -181 393t181 395
q182 164 440 164t439 -164t181 -395v-15z" />
    <glyph glyph-name="oneeighth" unicode="&#x215b;" 
d="M1237 1393l94 -60l-1061 -1360l-96 54zM408 782l98 465l-135 -43l-17 92l308 97l-132 -611h119l-20 -102h-393l20 102h152zM1044 594q-42 0 -70 -24t-36 -62q2 -20 -2 -28t9 -23t17 -19t20 -15q18 -11 22 -15q32 11 83 52q20 16 27 52q8 34 -10 58t-60 24zM935 84
q46 0 85 25t47 67q8 14 1 30t-8 24t-14 20t-29 22t-36 23l-28 -14q-31 -17 -65 -37q-34 -21 -46 -81q-6 -31 20 -55t73 -24zM914 -18q-94 0 -154 53q-59 53 -39 143q25 113 168 174q-94 68 -75 154t92 138t159 52t138 -52t33 -139t-138 -153q116 -66 94 -165t-103 -152
t-175 -53z" />
    <glyph glyph-name="threeeighths" unicode="&#x215c;" 
d="M509 1047q-46 0 -124 -13l18 80l224 168h-279l23 102h452l-18 -86l-211 -161q76 -7 121 -57t28 -130t-118 -171q-55 -50 -157 -78t-237 -19l21 102q332 -4 369 168q10 51 -28 73t-84 22zM1243 1393l94 -60l-1061 -1360l-96 54zM1065 594q-41 0 -70 -24t-37 -62
q2 -20 -2 -28t10 -23t16 -19t20 -15t22 -15q31 10 47 23t35 28t28 52q8 35 -10 59t-59 24zM956 84q46 0 84 25q39 25 47 67q7 14 1 30t-8 28q-2 11 -21 24q-18 12 -35 22t-23 15q-55 -28 -90 -49q-35 -22 -49 -83q-6 -31 21 -55t73 -24zM934 -18q-94 0 -154 53
q-59 53 -39 143q25 113 168 174q-95 68 -75 154t93 138t159 52t138 -52t32 -139t-138 -153q116 -66 94 -165t-103 -152t-175 -53z" />
    <glyph glyph-name="fiveeighths" unicode="&#x215d;" 
d="M1221 1393l94 -60l-1061 -1360l-96 54zM545 1147q96 0 148 -54q52 -53 32 -149t-135 -181t-266 -85h-107l23 102h69q115 0 197 46t98 126q8 45 -17 69q-55 50 -196 -9h-86l80 372h428l-22 -102h-306l-30 -149q51 14 90 14zM1047 594q-41 0 -70 -24t-37 -62q2 -20 -2 -28
t9 -23t17 -19t20 -15q18 -11 22 -15q34 11 63 35q28 24 36 36q7 12 13 40q6 27 -12 51t-59 24zM938 84q45 0 84 25t47 67q8 14 1 30t-8 24t-14 20t-29 22t-36 23l-28 -14q-67 -35 -84 -55q-18 -20 -25 -56q-8 -38 20 -62t72 -24zM916 -18q-94 0 -154 53q-59 53 -39 143
q25 113 168 174q-94 68 -75 154t92 138t159 52t138 -52t33 -139t-138 -153q116 -66 94 -165t-103 -152t-175 -53z" />
    <glyph glyph-name="seveneighths" unicode="&#x215e;" 
d="M1171 1393l95 -60l-1061 -1360l-96 54zM295 717l410 565h-293l22 102h467l-510 -708zM1020 594q-41 0 -70 -24t-37 -62q2 -20 -2 -28q-5 -8 9 -23t17 -19t21 -15t21 -15q31 10 47 23t35 28t28 52q9 35 -9 59t-60 24zM912 84q44 0 83 25t47 67q8 14 1 30t-8 24t-14 20
t-29 22t-36 23q-93 -47 -105 -60q-66 -79 -12 -127q29 -24 73 -24zM889 -18q-94 0 -154 53q-59 53 -39 143q25 113 168 174q-94 68 -74 154t92 138t158 52t138 -52t34 -139q-20 -87 -139 -153q115 -66 93 -165t-102 -152q-81 -53 -175 -53z" />
    <glyph glyph-name="uni2190" unicode="&#x2190;" 
d="M1364 782v-90h-942q28 -41 64 -129t36 -122t-28 -33q-16 0 -43 41q-115 170 -256 251q-43 20 -43 36t43 38q141 82 256 252q27 41 43 41q28 0 28 -34t-36 -122t-64 -129h942z" />
    <glyph glyph-name="arrowup" unicode="&#x2191;" 
d="M803 131h-90v942q-41 -27 -129 -63t-122 -37q-34 0 -34 28q0 16 41 43q170 115 252 256q21 43 37 43t37 -43q82 -141 252 -256q41 -27 40 -43q1 -29 -33 -29t-122 38q-88 36 -129 63v-942z" />
    <glyph glyph-name="uni2192" unicode="&#x2192;" 
d="M152 782h942q-27 41 -64 129t-37 122t29 34q16 0 43 -41q115 -170 256 -252q43 -20 43 -36t-43 -38q-141 -82 -256 -251q-27 -41 -43 -41q-29 0 -29 34t37 121q37 88 64 129h-942v90z" />
    <glyph glyph-name="arrowdown" unicode="&#x2193;" 
d="M803 1343v-942q41 27 129 64t122 37t33 -29q0 -16 -40 -43q-170 -115 -252 -256q-21 -43 -37 -43t-37 43q-82 141 -252 256q-41 27 -41 43q0 29 34 29t122 -37t129 -64v942h90z" />
    <glyph glyph-name="arrowboth" unicode="&#x2194;" 
d="M522 441q0 -34 -28 -33q-16 0 -43 41q-115 170 -256 251q-43 20 -43 36t43 38q141 82 256 252q27 41 43 41q28 0 28 -34t-37 -122t-63 -129h672q-27 41 -64 129t-37 122t29 34q16 0 43 -41q115 -170 256 -252q43 -20 43 -36t-43 -38q-141 -82 -256 -251q-27 -41 -43 -41
q-29 0 -29 34t37 121q37 88 64 129h-672q28 -41 64 -129t36 -122z" />
    <glyph glyph-name="arrowupdn" unicode="&#x2195;" 
d="M462 973q-34 0 -34 28q0 16 41 43q170 115 252 256q21 43 37 43t37 -43q82 -141 252 -256q41 -27 40 -43q1 -29 -33 -29t-122 38q-88 37 -129 63v-672q41 27 129 64t122 37t33 -29q0 -16 -40 -43q-170 -115 -252 -256q-21 -43 -37 -43t-37 43q-82 141 -252 256
q-41 27 -41 43q0 29 34 29t122 -37t129 -64v672q-41 -27 -129 -63t-122 -37z" />
    <glyph glyph-name="arrowupdnbse" unicode="&#x21a8;" 
d="M1087 90v-90h-659v90h659zM462 1106q-34 0 -34 29q0 16 41 43q170 115 252 256q21 43 37 43t37 -43q82 -141 252 -256q41 -27 40 -43q1 -29 -33 -29t-122 37t-129 63v-671q41 27 129 63t122 37q34 0 33 -29q0 -16 -40 -43q-170 -115 -252 -256q-21 -43 -37 -43t-37 43
q-82 141 -252 256q-41 27 -41 43q0 29 34 29q34 -1 122 -37t129 -63v671q-41 -28 -129 -64t-122 -36z" />
    <glyph glyph-name="partialdiff" unicode="&#x2202;" 
d="M686 92h2q156 0 262 144t131 344q-31 84 -125 162t-226 79q-132 -1 -234 -111t-102 -264t81 -254q82 -100 211 -100zM700 1516q217 0 375 -195t158 -541q0 -459 -248 -678q-129 -114 -319 -114t-296 138q-108 138 -108 312q0 215 134 350t323 136q141 0 243 -74t138 -145
h2q4 29 4 98q0 274 -124 442t-292 168t-301 -96l-51 88q145 111 362 111z" />
    <glyph glyph-name="Delta" unicode="&#x2206;" 
d="M188 104h881l-135 785q-33 207 -53 371h-9q-39 -70 -194 -334zM31 0l20 94l780 1297h154l227 -1295l-20 -96h-1161z" />
    <glyph glyph-name="product" unicode="&#x220f;" 
d="M1372 1247h-168v-1423h-129v1423h-610v-1423h-129v1423h-168v113h1204v-113z" />
    <glyph glyph-name="summation" unicode="&#x2211;" 
d="M1110 123v-123h-704v137l376 586l-376 508v135h698v-123h-553l379 -524l-391 -596h571z" />
    <glyph glyph-name="minus" unicode="&#x2212;" 
d="M1298 782v-90h-1089v90h1089z" />
    <glyph glyph-name="uni2215" unicode="&#x2215;" 
d="M1243 1393l94 -60l-1061 -1360l-96 54z" />
    <glyph glyph-name="uni2219" unicode="&#x2219;" 
d="M641 571l47 222h189l-48 -222h-188z" />
    <glyph glyph-name="radical" unicode="&#x221a;" 
d="M1368 1610l-483 -1893h-123l-352 908l-162 -62l-31 80l275 107l294 -773q2 -8 35 -122h2q6 35 29 125l414 1630h102z" />
    <glyph glyph-name="infinity" unicode="&#x221e;" 
d="M400 788q-66 0 -122 -58t-56 -160t56 -163q56 -62 150 -63h2q74 0 127 55l47 47q14 14 50 64t38 51q-47 70 -81 111q-34 40 -89 78q-56 38 -122 38zM1075 788h-2q-109 0 -215 -141q-10 -14 -28 -40t-29 -38q84 -119 144 -172t141 -53t131 66q49 66 49 162t-54 156
t-137 60zM1084 256q-108 0 -180 59q-73 59 -159 181q-96 -129 -137 -166q-84 -74 -198 -74t-200 89q-85 89 -85 229t91 220t220 80t252 -153q12 -14 35 -45t31 -41q82 119 154 179q74 60 184 60t190 -86t80 -217v-2q0 -139 -85 -226t-193 -87z" />
    <glyph glyph-name="intersection" unicode="&#x2229;" 
d="M1352 0h-90v909q0 207 -155 361t-349 154t-350 -154q-154 -154 -154 -361v-909h-90v887q0 260 171 438t423 178t423 -178t171 -438v-887z" />
    <glyph glyph-name="integral" unicode="&#x222b;" 
d="M960 1561q-176 0 -176 -394q0 -151 16 -489t15 -492q0 -262 -94 -389q-66 -94 -195 -94q-82 0 -137 37l27 90q59 -27 102 -27q180 0 180 385q0 158 -15 500t-15 492q0 477 295 477q63 0 114 -31l-24 -88q-31 23 -93 23z" />
    <glyph glyph-name="approxequal" unicode="&#x2248;" 
d="M991 461q-87 0 -202 61q-47 25 -56 29q-131 72 -204 72t-121 -40t-103 -118l-57 51q109 190 293 191q59 0 130 -29t97 -46q26 -18 50 -30t35 -17t47 -21t99 -17q64 -1 111 35t98 118l56 -51q-109 -188 -273 -188zM532 932q-76 0 -124 -40t-103 -116l-57 49
q109 190 293 191q89 0 195 -63q38 -23 48 -27q30 -14 87 -42t124 -28q66 0 115 37t98 117l56 -49q-109 -190 -273 -191q-57 0 -106 18t-129 60q-148 84 -224 84z" />
    <glyph glyph-name="notequal" unicode="&#x2260;" 
d="M1300 924v-90h-456l-107 -191h563v-90h-610l-135 -256l-70 35l117 221h-389v90h440l105 191h-545v90h592q131 239 137 250q35 -17 70 -35l-119 -215h407z" />
    <glyph glyph-name="equivalence" unicode="&#x2261;" 
d="M1303 508v-90h-1090v90h1090zM1303 782v-90h-1090v90h1090zM1303 1057v-90h-1090v90h1090z" />
    <glyph glyph-name="lessequal" unicode="&#x2264;" 
d="M1255 2h-1005v88h1005v-88zM1249 176l-987 467v90l987 467v-102l-887 -406v-4l887 -409v-103z" />
    <glyph glyph-name="greaterequal" unicode="&#x2265;" 
d="M1253 2h-1001v88h1001v-88zM264 1200l985 -467v-90l-985 -467v103l885 407v4l-885 408v102z" />
    <glyph glyph-name="dotmath" unicode="&#x22c5;" 
d="M655 737q0 31 22 53q23 22 53 22t52 -22t21 -53q0 -31 -22 -53q-23 -22 -53 -20q-30 0 -52 21t-21 52z" />
    <glyph glyph-name="house" unicode="&#x2302;" 
d="M225 61h1065v740l-532 311l-533 -311v-740zM1352 0h-1188v831l594 347l594 -347v-831z" />
    <glyph glyph-name="uni2304" unicode="&#x2304;" 
d="M369 1393h102l287 -564l280 564h103l-330 -662h-106z" />
    <glyph glyph-name="revlogicalnot" unicode="&#x2310;" 
d="M295 0h-90v565h1106v-90h-1016v-475z" />
    <glyph glyph-name="uni2319" unicode="&#x2319;" 
d="M205 565h90v-475h1016v-90h-1106v565z" />
    <glyph glyph-name="integraltp" unicode="&#x2320;" 
d="M715 561v741q0 210 20 328q46 267 115 372q39 58 101 99t143 41q114 0 196 -88t82 -202t-84 -113q-49 0 -73 50q-25 51 -29 111t-32 110t-83 50q-106 0 -168 -137q-41 -94 -69 -248t-29 -266v-848h-90z" />
    <glyph glyph-name="integralbt" unicode="&#x2321;" 
d="M801 1102v-741q-1 -217 -21 -331q-48 -266 -114 -369q-40 -58 -102 -99t-142 -41q-115 0 -197 88q-82 87 -82 201t84 114q49 0 73 -50t29 -110t33 -111q28 -50 82 -50q106 0 168 137q41 94 70 248t29 266v848h90z" />
    <glyph glyph-name="uni2500" unicode="&#x2500;" 
d="M143 442v148h1229v-148h-1229z" />
    <glyph glyph-name="uni2502" unicode="&#x2502;" 
d="M684 -590v2212h147v-2212h-147z" />
    <glyph glyph-name="uni250C" unicode="&#x250c;" 
d="M684 -590v1180h688v-148h-541v-1032h-147z" />
    <glyph glyph-name="uni2510" unicode="&#x2510;" 
d="M831 590v-1180h-147v1032h-541v148h688z" />
    <glyph glyph-name="uni2514" unicode="&#x2514;" 
d="M684 442v1180h147v-1032h541v-148h-688z" />
    <glyph glyph-name="uni2518" unicode="&#x2518;" 
d="M831 1622v-1180h-688v148h541v1032h147z" />
    <glyph glyph-name="uni251C" unicode="&#x251c;" 
d="M684 -590v2212h147v-1032h541v-148h-541v-1032h-147z" />
    <glyph glyph-name="uni2524" unicode="&#x2524;" 
d="M143 442v148h541v1032h147v-2212h-147v1032h-541z" />
    <glyph glyph-name="uni252C" unicode="&#x252c;" 
d="M143 442v148h1229v-148h-541v-1032h-147v1032h-541z" />
    <glyph glyph-name="uni2534" unicode="&#x2534;" 
d="M143 442v148h541v1032h147v-1032h541v-148h-1229z" />
    <glyph glyph-name="uni253C" unicode="&#x253c;" 
d="M143 442v148h541v1032h147v-1032h541v-148h-541v-1032h-147v1032h-541z" />
    <glyph glyph-name="uni2550" unicode="&#x2550;" 
d="M143 590v147h1229v-147h-1229zM143 295v147h1229v-147h-1229z" />
    <glyph glyph-name="uni2551" unicode="&#x2551;" 
d="M831 -590v2212h148v-2212h-148zM537 -590v2212h147v-2212h-147z" />
    <glyph glyph-name="uni2552" unicode="&#x2552;" 
d="M684 -590v1327h688v-147h-541v-148h541v-147h-541v-885h-147z" />
    <glyph glyph-name="uni2553" unicode="&#x2553;" 
d="M1372 590v-148h-393v-1032h-148v1032h-147v-1032h-147v1180h835z" />
    <glyph glyph-name="uni2554" unicode="&#x2554;" 
d="M831 -590v1032h541v-147h-393v-885h-148zM537 -590v1327h835v-147h-688v-1180h-147z" />
    <glyph glyph-name="uni2555" unicode="&#x2555;" 
d="M831 737v-1327h-147v885h-541v147h541v148h-541v147h688z" />
    <glyph glyph-name="uni2556" unicode="&#x2556;" 
d="M143 442v148h836v-1180h-148v1032h-147v-1032h-147v1032h-394z" />
    <glyph glyph-name="uni2557" unicode="&#x2557;" 
d="M143 590v147h836v-1327h-148v1180h-688zM143 295v147h541v-1032h-147v885h-394z" />
    <glyph glyph-name="uni2558" unicode="&#x2558;" 
d="M684 295v1327h147v-885h541v-147h-541v-148h541v-147h-688z" />
    <glyph glyph-name="uni2559" unicode="&#x2559;" 
d="M537 442v1180h147v-1032h147v1032h148v-1032h393v-148h-835z" />
    <glyph glyph-name="uni255A" unicode="&#x255a;" 
d="M831 590v1032h148v-885h393v-147h-541zM537 295v1327h147v-1180h688v-147h-835z" />
    <glyph glyph-name="uni255B" unicode="&#x255b;" 
d="M831 1622v-1327h-688v147h541v148h-541v147h541v885h147z" />
    <glyph glyph-name="uni255C" unicode="&#x255c;" 
d="M979 1622v-1180h-836v148h394v1032h147v-1032h147v1032h148z" />
    <glyph glyph-name="uni255D" unicode="&#x255d;" 
d="M143 590v147h394v885h147v-1032h-541zM143 295v147h688v1180h148v-1327h-836z" />
    <glyph glyph-name="uni255E" unicode="&#x255e;" 
d="M1372 442v-147h-541v-885h-147v2212h147v-885h541v-147h-541v-148h541z" />
    <glyph glyph-name="uni255F" unicode="&#x255f;" 
d="M831 -590v2212h148v-1032h393v-148h-393v-1032h-148zM537 -590v2212h147v-2212h-147z" />
    <glyph glyph-name="uni2560" unicode="&#x2560;" 
d="M831 590v1032h148v-885h393v-147h-541zM831 -590v1032h541v-147h-393v-885h-148zM537 -590v2212h147v-2212h-147z" />
    <glyph glyph-name="uni2561" unicode="&#x2561;" 
d="M143 295v147h541v148h-541v147h541v885h147v-2212h-147v885h-541z" />
    <glyph glyph-name="uni2562" unicode="&#x2562;" 
d="M831 -590v2212h148v-2212h-148zM143 442v148h394v1032h147v-2212h-147v1032h-394z" />
    <glyph glyph-name="uni2563" unicode="&#x2563;" 
d="M684 442v-1032h-147v885h-394v147h541zM684 1622v-1032h-541v147h394v885h147zM831 -590v2212h148v-2212h-148z" />
    <glyph glyph-name="uni2564" unicode="&#x2564;" 
d="M143 590v147h1229v-147h-1229zM143 295v147h1229v-147h-541v-885h-147v885h-541z" />
    <glyph glyph-name="uni2565" unicode="&#x2565;" 
d="M143 442v148h1229v-148h-393v-1032h-148v1032h-147v-1032h-147v1032h-394z" />
    <glyph glyph-name="uni2566" unicode="&#x2566;" 
d="M831 -590v1032h541v-147h-393v-885h-148zM143 590v147h1229v-147h-1229zM143 295v147h541v-1032h-147v885h-394z" />
    <glyph glyph-name="uni2567" unicode="&#x2567;" 
d="M143 590v147h541v885h147v-885h541v-147h-1229zM143 295v147h1229v-147h-1229z" />
    <glyph glyph-name="uni2568" unicode="&#x2568;" 
d="M143 442v148h394v1032h147v-1032h147v1032h148v-1032h393v-148h-1229z" />
    <glyph glyph-name="uni2569" unicode="&#x2569;" 
d="M831 590v1032h148v-885h393v-147h-541zM143 590v147h394v885h147v-1032h-541zM143 295v147h1229v-147h-1229z" />
    <glyph glyph-name="uni256A" unicode="&#x256a;" 
d="M143 295v147h541v148h-541v147h541v885h147v-885h541v-147h-541v-148h541v-147h-541v-885h-147v885h-541z" />
    <glyph glyph-name="uni256B" unicode="&#x256b;" 
d="M143 442v148h394v1032h147v-1032h147v1032h148v-1032h393v-148h-393v-1032h-148v1032h-147v-1032h-147v1032h-394z" />
    <glyph glyph-name="uni256C" unicode="&#x256c;" 
d="M831 590v1032h148v-885h393v-147h-541zM831 -590v1032h541v-147h-393v-885h-148zM143 590v147h394v885h147v-1032h-541zM143 295v147h541v-1032h-147v885h-394z" />
    <glyph glyph-name="upblock" unicode="&#x2580;" 
d="M143 516v1106h1229v-1106h-1229z" />
    <glyph glyph-name="dnblock" unicode="&#x2584;" 
d="M143 -590v1106h1229v-1106h-1229z" />
    <glyph glyph-name="block" unicode="&#x2588;" 
d="M143 -590v2212h1229v-2212h-1229z" />
    <glyph glyph-name="lfblock" unicode="&#x258c;" 
d="M143 -590v2212h615v-2212h-615z" />
    <glyph glyph-name="rtblock" unicode="&#x2590;" 
d="M758 -590v2212h614v-2212h-614z" />
    <glyph glyph-name="ltshade" unicode="&#x2591;" 
d="M963 616v201h204v-201h-204zM553 616v201h205v-201h-205zM143 616v201h205v-201h-205zM963 215v201h204v-201h-204zM553 215v201h205v-201h-205zM143 215v201h205v-201h-205zM963 -186v200h204v-200h-204zM553 -186v200h205v-200h-205zM143 -186v200h205v-200h-205z
M963 1018v201h204v-201h-204zM553 1018v201h205v-201h-205zM143 1018v201h205v-201h-205zM963 1421v201h204v-201h-204zM553 1421v201h205v-201h-205zM143 1421v201h205v-201h-205zM963 -590v201h204v-201h-204zM553 -590v201h205v-201h-205zM143 -590v201h205v-201h-205z
" />
    <glyph glyph-name="shade" unicode="&#x2592;" 
d="M348 -389v199h203v-199h-203zM758 -389v199h203v-199h-203zM1167 -389v199h205v-199h-205zM1167 12v199h205v-199h-205zM758 12v199h203v-199h-203zM348 12v199h203v-199h-203zM348 416v198h203v-198h-203zM758 416v198h203v-198h-203zM1167 416v198h205v-198h-205z
M1167 819v199h205v-199h-205zM758 819v199h203v-199h-203zM348 819v199h203v-199h-203zM1167 1223v198h205v-198h-205zM758 1223v198h203v-198h-203zM348 1223v198h203v-198h-203zM963 618v199h202v-199h-202zM553 618v199h203v-199h-203zM143 618v199h203v-199h-203z
M963 215v199h202v-199h-202zM553 215v199h203v-199h-203zM143 215v199h203v-199h-203zM963 -188v198h202v-198h-202zM553 -188v198h203v-198h-203zM143 -188v198h203v-198h-203zM963 1022v199h202v-199h-202zM553 1022v199h203v-199h-203zM143 1022v199h203v-199h-203z
M963 1423v199h202v-199h-202zM553 1423v199h203v-199h-203zM143 1423v199h203v-199h-203zM963 -590v199h202v-199h-202zM553 -590v199h203v-199h-203zM143 -590v199h203v-199h-203z" />
    <glyph glyph-name="dkshade" unicode="&#x2593;" 
d="M1372 819h-282v199h282v-199zM1245 618h-282v199h282v-199zM963 819h-283v199h283v-199zM836 618h-283v199h283v-199zM553 819h-283v199h283v-199zM426 618h-283v199h283v-199zM1372 416h-282v198h282v-198zM1245 215h-282v199h282v-199zM963 416h-283v198h283v-198z
M836 215h-283v199h283v-199zM553 416h-283v198h283v-198zM426 215h-283v199h283v-199zM1245 1022h-282v199h282v-199zM1245 1423h-282v199h282v-199zM1372 1223h-282v198h282v-198zM836 1022h-283v199h283v-199zM836 1423h-283v199h283v-199zM963 1223h-283v198h283v-198z
M426 1022h-283v199h283v-199zM426 1423h-283v199h283v-199zM553 1223h-283v198h283v-198zM1245 -590h-282v199h282v-199zM1372 12h-282v199h282v-199zM1372 -389h-282v199h282v-199zM1245 -188h-282v198h282v-198zM836 -590h-283v199h283v-199zM963 12h-283v199h283v-199z
M963 -389h-283v199h283v-199zM836 -188h-283v198h283v-198zM426 -590h-283v199h283v-199zM553 12h-283v199h283v-199zM553 -389h-283v199h283v-199zM426 -188h-283v198h283v-198z" />
    <glyph glyph-name="uni25A0" unicode="&#x25a0;" 
d="M348 205v819h819v-819h-819z" />
    <glyph glyph-name="filledrect" unicode="&#x25ac;" 
d="M348 532v410h819v-410h-819z" />
    <glyph glyph-name="triagup" unicode="&#x25b2;" 
d="M238 250l520 971l520 -971h-1040z" />
    <glyph glyph-name="uni25B6" unicode="&#x25b6;" 
d="M272 217v1040l971 -520z" />
    <glyph glyph-name="triagdn" unicode="&#x25bc;" 
d="M758 250l-520 971h1040z" />
    <glyph glyph-name="uni25C0" unicode="&#x25c0;" 
d="M1243 1257v-1040l-971 520z" />
    <glyph glyph-name="lozenge" unicode="&#x25ca;" 
d="M1102 682l-330 580q-25 43 -41 92h-4q-18 -53 -41 -92l-326 -574l332 -584q29 -51 37 -90h8q14 51 37 90zM1223 684l-441 -772h-104l-436 772l438 774h104z" />
    <glyph glyph-name="circle" unicode="&#x25cb;" 
d="M375 516q1 -158 113 -270t270 -113q158 0 270 113q112 112 113 270q0 158 -113 270q-112 112 -270 113q-158 -1 -270 -113t-113 -270zM289 516q0 193 138 331t331 138t331 -138t138 -331t-138 -331t-331 -138t-331 138t-138 331z" />
    <glyph glyph-name="invbullet" unicode="&#x25d8;" 
d="M506 514q0 -104 73 -177t178 -73t179 74t74 177t-75 178t-177 75t-177 -75t-75 -179zM143 -590v2212h1229v-2212h-1229z" />
    <glyph glyph-name="invcircle" unicode="&#x25d9;" 
d="M375 516q1 158 113 270t270 113q158 0 270 -113q112 -112 113 -270q0 -158 -113 -270q-112 -112 -270 -113q-158 1 -270 113t-113 270zM289 516q0 -193 138 -331t331 -138t331 138t138 331t-138 331t-331 138t-331 -138t-138 -331zM143 -590v2212h1229v-2212h-1229z" />
    <glyph glyph-name="smileface" unicode="&#x263a;" 
d="M758 225q-182 0 -287 127q-53 63 -33 123q10 35 31 14q2 -4 6 -10q103 -184 283 -184t282 184q18 33 35 4q23 -43 -14 -106q-6 -12 -17 -25q-104 -127 -286 -127zM897 879q0 43 30 73q31 30 73 29q42 0 72 -30q30 -31 30 -73t-30 -72t-73 -30t-73 30t-29 73zM414 879
q0 43 30 73t72 29q43 0 73 -30q29 -31 29 -73t-30 -72t-72 -30q-43 0 -73 30q-29 30 -29 73zM758 1239q-236 0 -399 -163q-163 -162 -163 -400t164 -401q162 -163 398 -163t398 164q162 162 163 400q-1 238 -163 400t-398 163zM164 676q0 250 172 422t422 172t422 -172
t172 -422t-172 -422t-422 -172t-422 172t-172 422z" />
    <glyph glyph-name="invsmileface" unicode="&#x263b;" 
d="M758 225q182 0 286 127q53 63 33 123q-10 35 -30 14q-2 -4 -7 -10q-102 -184 -282 -184t-283 184q-18 33 -35 4q-29 -53 31 -131q105 -127 287 -127zM897 879q0 -43 30 -73q31 -30 73 -30t72 30t30 73t-30 73t-73 29q-43 1 -73 -29t-29 -73zM414 879q0 -43 30 -73t72 -30
q43 0 73 30t29 73q0 43 -30 73t-72 29q-42 1 -72 -29t-30 -73zM164 676q0 250 172 422t422 172t422 -172t172 -422t-172 -422t-422 -172t-422 172t-172 422z" />
    <glyph glyph-name="sun" unicode="&#x263c;" 
d="M483 652q0 -118 74 -196t197 -77q124 0 202 79q78 78 76 196t-79 196t-199 77t-197 -79q-74 -78 -74 -196zM1352 686v-65h-256q-14 -106 -78 -172l180 -181l-47 -47l-178 178q-74 -70 -182 -86v-252h-66v252q-119 16 -182 76l-178 -178l-46 47l179 178q-70 76 -80 185
h-254v65h254q-2 117 71 197l-178 178l45 49l181 -180q72 55 188 63v256h66v-256q98 -4 186 -75l180 178l47 -45l-180 -181q59 -66 74 -184h254z" />
    <glyph glyph-name="female" unicode="&#x2640;" 
d="M492 979q0 -113 76 -189t189 -77q111 0 189 77q78 78 78 190t-78 188t-190 77q-112 -1 -188 -77t-76 -189zM795 0h-74v350h-258v74h258v223q-133 23 -214 117t-81 225t97 226t235 95t235 -94q97 -96 97 -227t-80 -225t-215 -117v-223h258v-74h-258v-350z" />
    <glyph glyph-name="male" unicode="&#x2642;" 
d="M924 1167h348v-348h-4l-80 213l-348 -348q78 -114 68 -236t-101 -214q-92 -92 -229 -90q-136 2 -234 98q-98 98 -98 233t92 229t214 102q122 9 236 -71l349 350l-213 78v4zM311 476q0 -108 80 -188q81 -80 189 -80q108 -1 188 79q80 81 79 189t-80 188t-189 80t-188 -80
q-79 -80 -79 -188z" />
    <glyph glyph-name="spade" unicode="&#x2660;" 
d="M739 551h-4q-45 -101 -127 -163t-190 -62t-189 76q-80 76 -79 186q0 76 45 154t80 113q36 36 87 81t60 51q141 121 221 224t113 247h4q32 -142 112 -246t224 -227t188 -180q82 -106 82 -216t-80 -187q-80 -76 -188 -76t-191 61q-82 61 -127 164h-4q0 -492 469 -506l8 -45
h-991l8 45q469 14 469 506z" />
    <glyph glyph-name="uni2662" unicode="&#x2662;" 
d="M758 23q193 301 567 694q-375 393 -567 694q-193 -301 -568 -694q375 -393 568 -694zM758 1458q221 -340 608 -741q-387 -401 -608 -742q-221 340 -608 742q387 401 608 741z" />
    <glyph glyph-name="club" unicode="&#x2663;" 
d="M748 606h-5q-37 -110 -123 -196t-201 -86q-116 0 -193 100q-76 100 -76 222t62 230t161 107q78 0 176 -61q-66 126 -66 232t75 205t200 99q126 0 200 -99t74 -205t-65 -232q98 61 186 61t151 -107q62 -108 62 -230t-77 -222t-193 -100t-201 86q-86 86 -123 196h-4
q0 -296 115 -419q57 -60 121 -91t157 -53l13 -43h-832l12 43q94 23 158 53q158 76 207 255q29 103 29 255z" />
    <glyph glyph-name="heart" unicode="&#x2665;" 
d="M437 1458q122 0 208 -89t111 -208h4q25 119 110 208q86 89 208 89t205 -88t83 -215t-64 -251t-170 -265t-158 -217t-120 -204t-94 -243h-4q-27 115 -94 243q-68 128 -120 204t-138 190t-131 184q-44 69 -84 169t-39 188q0 129 82 217q83 88 205 88z" />
    <glyph glyph-name="diamond" unicode="&#x2666;" 
d="M758 1458q221 -340 608 -741q-387 -401 -608 -742q-221 340 -608 742q387 401 608 741z" />
    <glyph glyph-name="musicalnote" unicode="&#x266a;" 
d="M678 1458h90v-129l127 -153q209 -246 209 -504q0 -201 -121 -340h-59q88 150 88 295t-65 259t-179 132v-643q0 -172 -88 -263t-229 -92q-66 0 -104 34t-38 98q0 96 79 169t175 72q64 1 115 -22v1087z" />
    <glyph glyph-name="uni266C" unicode="&#x266c;" 
d="M535 958l632 193v147l-632 -192v-148zM535 303q-1 -178 -89 -268t-231 -90q-63 -1 -102 33t-39 96q0 98 79 170t177 71q63 0 114 -22v960l813 230v-1059q0 -178 -88 -268t-231 -90q-63 0 -102 34t-39 95q0 98 79 170t177 71q63 1 114 -22v573l-632 -190v-494z" />
    <glyph glyph-name="uni0044_uni004D" unicode="&#xe007;" 
d="M299 123q35 0 59 8t59 40q100 94 189 511q104 504 -5 553q-17 8 -42 8h-78l-237 -1120h55zM563 1366q78 0 126 -29q110 -66 92 -311q-13 -196 -73 -445t-106 -331q-47 -82 -91 -138q-88 -112 -237 -112h-260l27 123h80l237 1120h-79l26 123h258zM1059 1366l20 -559h4
l258 559h162l-291 -1366h-122l233 1098h-4l-315 -666h-5l-32 666h-4l-234 -1098h-123l291 1366h162z" />
    <glyph glyph-name="zero.slash" unicode="&#xf638;" 
d="M594 -18q-181 0 -232 118q-27 66 -42 117t7 200q23 150 52 265q61 297 110 410q135 288 420 292q144 0 225 -86q53 -58 65 -193t-42 -350q-16 -69 -17 -75q0 -6 -14 -70t-28 -132q-14 -69 -56 -169q-41 -100 -73 -138q-31 -38 -69 -78t-79 -60q-105 -51 -227 -51z
M473 395h4l567 756q-14 49 -59 77t-104 28t-99 -15q-40 -14 -86 -66q-88 -97 -166 -466q-10 -41 -57 -310v-4zM1049 979l-574 -760q13 -51 59 -80t106 -29t100 16t88 70q91 104 171 486q9 52 27 152t27 141z" />
    <glyph glyph-name="Lslash.sc" unicode="&#xf6f9;" 
d="M713 1067l-80 -375l383 133l-31 -137l-381 -133l-92 -432h559l-27 -123h-696l107 504l-193 -68l31 137l192 68l90 426h138z" />
    <glyph glyph-name="OE.sc" unicode="&#xf6fa;" 
d="M635 139l168 789q-41 29 -98 28q-231 0 -326 -424q-88 -422 145 -421q60 -1 111 28zM510 -18q-297 0 -297 356q0 90 23 194q63 293 203 423t294 130q70 0 115 -18h487l-26 -123h-365l-67 -319h299l-27 -123h-299l-80 -379h365l-27 -123h-487q-54 -18 -111 -18z" />
    <glyph glyph-name="Scaron.sc" unicode="&#xf6fd;" 
d="M653 1448l234 -127l289 127l30 -74l-352 -209l-266 209zM647 111q88 0 164 53t81 167q1 19 -5 35t-10 27q-5 13 -19 25t-24 22t-36 21q-63 29 -83 37l-40 18q-146 64 -171 112q-8 14 -18 34q-26 49 -7 143q27 129 133 205t240 75q256 0 268 -268l-139 -39
q-4 178 -160 178q-72 0 -130 -36q-59 -36 -71 -94q-21 -98 37 -140q23 -16 68 -37l207 -100q131 -84 97 -242q-33 -157 -145 -241t-260 -84t-224 86q-74 86 -68 231l131 39q-4 -227 184 -227z" />
    <glyph glyph-name="Zcaron.sc" unicode="&#xf6ff;" 
d="M653 1448l234 -127l289 127l30 -74l-352 -209l-266 209zM213 0l760 944h-500l27 123h727l-756 -944h571l-26 -123h-803z" />
    <glyph glyph-name="A.sc" unicode="&#xf761;" 
d="M854 414l-47 493l-256 -493h303zM866 291h-379l-168 -318l-124 50l559 1044h176l112 -1044l-145 -50z" />
    <glyph glyph-name="B.sc" unicode="&#xf762;" 
d="M684 0h-434l26 123h111l174 821h-110l26 123h336q387 0 326 -285q-31 -152 -168 -219q83 -27 115 -97t14 -161q-32 -145 -140 -225t-276 -80zM780 610q86 0 143 48q56 48 72 124q35 162 -151 162h-146l-71 -334h153zM684 123q233 0 270 172q18 84 -23 138q-42 54 -136 54
h-193l-78 -364h160z" />
    <glyph glyph-name="C.sc" unicode="&#xf763;" 
d="M639 -18q-113 0 -185 49t-99 127q-26 78 -30 177q-5 99 21 197q61 289 211 421t305 132q119 0 186 -57t103 -170l-139 -63q-49 162 -176 161q-76 0 -138 -41q-98 -64 -174 -258t-47 -395q10 -70 55 -110t127 -41q83 0 147 43t138 129l96 -78q-188 -223 -401 -223z" />
    <glyph glyph-name="D.sc" unicode="&#xf764;" 
d="M664 123q137 0 217 92t129 317q39 162 23 253q-15 91 -62 125t-137 34h-142l-174 -821h146zM827 1067q233 0 313 -116t17 -404q-70 -337 -216 -452q-121 -95 -341 -95h-356l26 123h111l174 821h-111l27 123h356z" />
    <glyph glyph-name="E.sc" unicode="&#xf765;" 
d="M322 0l227 1067h665l-26 -123h-529l-67 -319h436l-27 -123h-436l-80 -379h529l-27 -123h-665z" />
    <glyph glyph-name="F.sc" unicode="&#xf766;" 
d="M360 0l228 1067h672l-27 -123h-535l-67 -319h448l-26 -123h-449l-106 -502h-138z" />
    <glyph glyph-name="G.sc" unicode="&#xf767;" 
d="M1096 569l-101 -471q-172 -117 -352 -116q-113 0 -185 48q-127 85 -124 306q0 92 22 199q50 225 180 388t338 162q104 0 182 -55t115 -149l-131 -76q-61 152 -202 151q-74 0 -136 -42q-138 -94 -202 -384q-14 -90 -22 -183t38 -165q45 -72 150 -72t206 56l60 280h-256
l26 123h394z" />
    <glyph glyph-name="H.sc" unicode="&#xf768;" 
d="M266 0l228 1067h137l-94 -442h421l95 442h137l-227 -1067h-138l107 502h-422l-107 -502h-137z" />
    <glyph glyph-name="I.sc" unicode="&#xf769;" 
d="M395 0l27 123h149l174 821h-149l27 123h438l-27 -123h-151l-174 -821h151l-26 -123h-439z" />
    <glyph glyph-name="J.sc" unicode="&#xf76a;" 
d="M546 -18q-168 0 -227 100q-57 100 -12 315h137q-37 -155 -6 -221t135 -66t170 58q66 57 86 156l158 743h137l-163 -770q-27 -127 -137 -221t-278 -94z" />
    <glyph glyph-name="K.sc" unicode="&#xf76b;" 
d="M696 1067l-96 -455h51l469 482l86 -82l-450 -449l309 -502l-123 -88l-319 527h-48l-106 -500h-137l227 1067h137z" />
    <glyph glyph-name="L.sc" unicode="&#xf76c;" 
d="M348 0l227 1067h138l-201 -944h559l-27 -123h-696z" />
    <glyph glyph-name="M.sc" unicode="&#xf76d;" 
d="M678 301l-119 563h-4l-211 -864h-145l270 1067h180l94 -463l291 463h180l-184 -1067h-145l157 864h-4z" />
    <glyph glyph-name="N.sc" unicode="&#xf76e;" 
d="M258 0l227 1067h170l222 -899l6 4l47 277l131 618h137l-227 -1067h-170l-223 899l-5 -4l-47 -279l-131 -616h-137z" />
    <glyph glyph-name="O.sc" unicode="&#xf76f;" 
d="M817 956q-231 0 -325 -424q-88 -422 145 -421q74 0 133 42q59 43 96 113q71 135 100 271q29 137 15 265q-8 70 -49 112t-115 42zM628 -18q-88 0 -144 26t-103 88q-89 119 -33 436q62 291 202 422t290 131t236 -117q85 -117 30 -436q-24 -111 -69 -215q-46 -104 -96 -169
q-50 -66 -138 -116q-87 -50 -175 -50z" />
    <glyph glyph-name="P.sc" unicode="&#xf770;" 
d="M780 582q205 0 246 184q20 100 -26 139t-142 39h-188l-78 -362h188zM891 1067q174 0 242 -82q68 -83 37 -225t-140 -222t-233 -79h-230l-98 -459h-137l227 1067h332z" />
    <glyph glyph-name="Q.sc" unicode="&#xf771;" 
d="M817 956q-231 0 -325 -424q-88 -422 145 -421q60 -1 113 28l-144 162l105 94l139 -157q78 123 112 280t19 284q-8 70 -49 112t-115 42zM837 1085q153 0 239 -117q85 -117 30 -436q-55 -256 -172 -389l96 -110l-104 -92l-97 108q-104 -68 -219 -67q-144 0 -231 116
t-31 434q60 285 198 419t291 134z" />
    <glyph glyph-name="R.sc" unicode="&#xf772;" 
d="M895 1067q143 0 216 -72t42 -219q-23 -100 -101 -185t-180 -114l170 -432l-135 -72l-170 484h-198l-97 -457h-137l227 1067h363zM745 580q102 0 174 53q71 53 89 136t-19 129t-125 46h-221l-78 -364h180z" />
    <glyph glyph-name="S.sc" unicode="&#xf773;" 
d="M647 111q88 0 164 53t81 167q1 19 -5 35t-10 27q-5 13 -19 25t-24 22t-36 21q-63 29 -83 37l-40 18q-146 64 -171 112q-8 14 -18 34q-26 49 -7 143q27 129 133 205t240 75q256 0 268 -268l-139 -39q-4 178 -160 178q-72 0 -130 -36q-59 -36 -71 -94q-21 -98 37 -140
q23 -16 68 -37l207 -100q131 -84 97 -242q-33 -157 -145 -241t-260 -84t-224 86q-74 86 -68 231l131 39q-4 -227 184 -227z" />
    <glyph glyph-name="T.sc" unicode="&#xf774;" 
d="M549 0l201 944h-295l26 123h721l-26 -123h-289l-201 -944h-137z" />
    <glyph glyph-name="U.sc" unicode="&#xf775;" 
d="M638 111q112 0 166 53t81 176l155 727h138l-170 -793q-27 -120 -130 -206q-104 -86 -268 -86t-230 87t-40 214l168 784h137l-156 -727q-25 -121 5 -175q32 -54 144 -54z" />
    <glyph glyph-name="V.sc" unicode="&#xf776;" 
d="M680 311l459 783l118 -50l-636 -1071h-25l-182 1071l143 50z" />
    <glyph glyph-name="W.sc" unicode="&#xf777;" 
d="M420 1077l145 17l-78 -750h5l288 524h37l68 -524h4l244 750l135 -17l-389 -1104h-48l-83 658l-363 -658h-47z" />
    <glyph glyph-name="X.sc" unicode="&#xf778;" 
d="M709 444l-385 -471l-109 70l442 522l-204 457l141 72l166 -406l342 406l108 -72l-397 -457l217 -522l-137 -70z" />
    <glyph glyph-name="Y.sc" unicode="&#xf779;" 
d="M731 545l402 549l112 -68l-475 -614l-88 -412h-137l88 412l-215 614l145 68z" />
    <glyph glyph-name="Z.sc" unicode="&#xf77a;" 
d="M213 0l760 944h-500l27 123h727l-756 -944h571l-26 -123h-803z" />
    <glyph glyph-name="Agrave.sc" unicode="&#xf7e0;" 
d="M786 1464l318 -207l-72 -90l-348 168zM854 414l-47 493l-256 -493h303zM866 291h-379l-168 -318l-124 50l559 1044h176l112 -1044l-145 -50z" />
    <glyph glyph-name="Aacute.sc" unicode="&#xf7e1;" 
d="M1075 1464l45 -129l-418 -168l-34 90zM854 414l-47 493l-256 -493h303zM866 291h-379l-168 -318l-124 50l559 1044h176l112 -1044l-145 -50z" />
    <glyph glyph-name="Acircumflex.sc" unicode="&#xf7e2;" 
d="M881 1296l-287 -127l-33 74l352 209l267 -209l-64 -74zM854 414l-47 493l-256 -493h303zM866 291h-379l-168 -318l-124 50l559 1044h176l112 -1044l-145 -50z" />
    <glyph glyph-name="Atilde.sc" unicode="&#xf7e3;" 
d="M793 1425q55 0 119 -59t95 -59t53 26q20 27 28 37t20 36t14 28l97 -33q-50 -94 -83 -136q-61 -79 -137 -79t-145 63q-53 53 -88 54q-62 0 -125 -127l-92 38q60 97 94 137q64 74 150 74zM854 414l-47 493l-256 -493h303zM866 291h-379l-168 -318l-124 50l559 1044h176
l112 -1044l-145 -50z" />
    <glyph glyph-name="Adieresis.sc" unicode="&#xf7e4;" 
d="M1100 1434q47 0 63 -40t6 -89t-44 -89t-81 -40t-64 40t-7 88q10 50 45 90t82 40zM723 1434q47 0 63 -40t6 -89t-43 -89q-34 -40 -81 -40t-65 39q-17 39 -7 89t45 90t82 40zM854 414l-47 493l-256 -493h303zM866 291h-379l-168 -318l-124 50l559 1044h176l112 -1044
l-145 -50z" />
    <glyph glyph-name="Aring.sc" unicode="&#xf7e5;" 
d="M893 1354q-39 0 -74 -28t-43 -66t14 -68q22 -29 62 -29t73 28q34 28 43 68q8 39 -14 67t-61 28zM911 1436q74 0 115 -52t25 -126q-17 -72 -79 -124t-136 -52t-115 52t-26 125t79 125t137 52zM854 414l-47 493l-256 -493h303zM866 291h-379l-168 -318l-124 50l559 1044
h176l112 -1044l-145 -50z" />
    <glyph glyph-name="AE.sc" unicode="&#xf7e6;" 
d="M596 0l61 291h-280l-166 -318l-125 50l559 1044h680l-27 -123h-364l-68 -319h297l-26 -123h-297l-80 -379h364l-26 -123h-502zM684 414l113 530h-86l-269 -530h242z" />
    <glyph glyph-name="Ccedilla.sc" unicode="&#xf7e7;" 
d="M560 -389q-74 0 -193 59l63 105q74 -41 139 -41t75 39t-39 53q-56 14 -122 14l86 148q-117 18 -179 104t-64 200t20 240q61 289 211 421t305 132q119 0 186 -57t103 -170l-139 -63q-49 162 -176 161q-76 0 -138 -41q-98 -64 -174 -258t-47 -395q10 -70 55 -110t127 -41
q83 0 147 43t138 129l96 -78q-168 -199 -348 -219l-39 -72q70 -4 109 -41q38 -37 24 -105t-83 -113q-69 -44 -143 -44z" />
    <glyph glyph-name="Egrave.sc" unicode="&#xf7e8;" 
d="M786 1464l318 -207l-72 -90l-348 168zM322 0l227 1067h665l-26 -123h-529l-67 -319h436l-27 -123h-436l-80 -379h529l-27 -123h-665z" />
    <glyph glyph-name="Eacute.sc" unicode="&#xf7e9;" 
d="M1075 1464l45 -129l-418 -168l-34 90zM322 0l227 1067h665l-26 -123h-529l-67 -319h436l-27 -123h-436l-80 -379h529l-27 -123h-665z" />
    <glyph glyph-name="Ecircumflex.sc" unicode="&#xf7ea;" 
d="M881 1296l-287 -127l-33 74l352 209l267 -209l-64 -74zM322 0l227 1067h665l-26 -123h-529l-67 -319h436l-27 -123h-436l-80 -379h529l-27 -123h-665z" />
    <glyph glyph-name="Edieresis.sc" unicode="&#xf7eb;" 
d="M1100 1434q47 0 63 -40t6 -89t-44 -89t-81 -40t-64 40t-7 88q10 50 45 90t82 40zM723 1434q47 0 63 -40t6 -89t-43 -89q-34 -40 -81 -40t-65 39q-17 39 -7 89t45 90t82 40zM322 0l227 1067h665l-26 -123h-529l-67 -319h436l-27 -123h-436l-80 -379h529l-27 -123h-665z
" />
    <glyph glyph-name="Igrave.sc" unicode="&#xf7ec;" 
d="M786 1464l318 -207l-72 -90l-348 168zM395 0l27 123h149l174 821h-149l27 123h438l-27 -123h-151l-174 -821h151l-26 -123h-439z" />
    <glyph glyph-name="Iacute.sc" unicode="&#xf7ed;" 
d="M1075 1464l45 -129l-418 -168l-34 90zM395 0l27 123h149l174 821h-149l27 123h438l-27 -123h-151l-174 -821h151l-26 -123h-439z" />
    <glyph glyph-name="Icircumflex.sc" unicode="&#xf7ee;" 
d="M881 1296l-287 -127l-33 74l352 209l267 -209l-64 -74zM395 0l27 123h149l174 821h-149l27 123h438l-27 -123h-151l-174 -821h151l-26 -123h-439z" />
    <glyph glyph-name="Idieresis.sc" unicode="&#xf7ef;" 
d="M1100 1434q47 0 63 -40t6 -89t-44 -89t-81 -40t-64 40t-7 88q10 50 45 90t82 40zM723 1434q47 0 63 -40t6 -89t-43 -89q-34 -40 -81 -40t-65 39q-17 39 -7 89t45 90t82 40zM395 0l27 123h149l174 821h-149l27 123h438l-27 -123h-151l-174 -821h151l-26 -123h-439z" />
    <glyph glyph-name="Eth.sc" unicode="&#xf7f0;" 
d="M664 123q137 0 217 92t129 317q39 162 23 253q-15 91 -62 125t-137 34h-142l-74 -350h162l-26 -123h-162l-74 -348h146zM827 1067q233 0 313 -116t17 -404q-70 -337 -216 -452q-121 -95 -341 -95h-356l26 123h111l74 348h-111l27 123h110l74 350h-111l27 123h356z" />
    <glyph glyph-name="Ntilde.sc" unicode="&#xf7f1;" 
d="M793 1425q55 0 119 -59t95 -59t53 26q20 27 28 37t20 36t14 28l97 -33q-50 -94 -83 -136q-61 -79 -137 -79t-145 63q-53 53 -88 54q-62 0 -125 -127l-92 38q60 97 94 137q64 74 150 74zM258 0l227 1067h170l222 -899l6 4l47 277l131 618h137l-227 -1067h-170l-223 899
l-5 -4l-47 -279l-131 -616h-137z" />
    <glyph glyph-name="Ograve.sc" unicode="&#xf7f2;" 
d="M786 1464l318 -207l-72 -90l-348 168zM817 956q-231 0 -325 -424q-88 -422 145 -421q74 0 133 42q59 43 96 113q71 135 100 271q29 137 15 265q-8 70 -49 112t-115 42zM628 -18q-88 0 -144 26t-103 88q-89 119 -33 436q62 291 202 422t290 131t236 -117q85 -117 30 -436
q-24 -111 -69 -215q-46 -104 -96 -169q-50 -66 -138 -116q-87 -50 -175 -50z" />
    <glyph glyph-name="Oacute.sc" unicode="&#xf7f3;" 
d="M1075 1464l45 -129l-418 -168l-34 90zM817 956q-231 0 -325 -424q-88 -422 145 -421q74 0 133 42q59 43 96 113q71 135 100 271q29 137 15 265q-8 70 -49 112t-115 42zM628 -18q-88 0 -144 26t-103 88q-89 119 -33 436q62 291 202 422t290 131t236 -117q85 -117 30 -436
q-24 -111 -69 -215q-46 -104 -96 -169q-50 -66 -138 -116q-87 -50 -175 -50z" />
    <glyph glyph-name="Ocircumflex.sc" unicode="&#xf7f4;" 
d="M881 1296l-287 -127l-33 74l352 209l267 -209l-64 -74zM817 956q-231 0 -325 -424q-88 -422 145 -421q74 0 133 42q59 43 96 113q71 135 100 271q29 137 15 265q-8 70 -49 112t-115 42zM628 -18q-88 0 -144 26t-103 88q-89 119 -33 436q62 291 202 422t290 131t236 -117
q85 -117 30 -436q-24 -111 -69 -215q-46 -104 -96 -169q-50 -66 -138 -116q-87 -50 -175 -50z" />
    <glyph glyph-name="Otilde.sc" unicode="&#xf7f5;" 
d="M793 1425q55 0 119 -59t95 -59t53 26q20 27 28 37t20 36t14 28l97 -33q-50 -94 -83 -136q-61 -79 -137 -79t-145 63q-53 53 -88 54q-62 0 -125 -127l-92 38q60 97 94 137q64 74 150 74zM817 956q-231 0 -325 -424q-88 -422 145 -421q74 0 133 42q59 43 96 113
q71 135 100 271q29 137 15 265q-8 70 -49 112t-115 42zM628 -18q-88 0 -144 26t-103 88q-89 119 -33 436q62 291 202 422t290 131t236 -117q85 -117 30 -436q-24 -111 -69 -215q-46 -104 -96 -169q-50 -66 -138 -116q-87 -50 -175 -50z" />
    <glyph glyph-name="Odieresis.sc" unicode="&#xf7f6;" 
d="M1100 1434q47 0 63 -40t6 -89t-44 -89t-81 -40t-64 40t-7 88q10 50 45 90t82 40zM723 1434q47 0 63 -40t6 -89t-43 -89q-34 -40 -81 -40t-65 39q-17 39 -7 89t45 90t82 40zM817 956q-231 0 -325 -424q-88 -422 145 -421q74 0 133 42q59 43 96 113q71 135 100 271
q29 137 15 265q-8 70 -49 112t-115 42zM628 -18q-88 0 -144 26t-103 88q-89 119 -33 436q62 291 202 422t290 131t236 -117q85 -117 30 -436q-24 -111 -69 -215q-46 -104 -96 -169q-50 -66 -138 -116q-87 -50 -175 -50z" />
    <glyph glyph-name="Oslash.sc" unicode="&#xf7f8;" 
d="M610 -18q-119 0 -186 65l-59 -80l-95 56l88 116q-63 137 -6 407q56 270 194 405q138 134 300 134q114 0 182 -61l59 78l91 -58l-82 -112q63 -143 6 -413q-56 -269 -194 -403t-298 -134zM635 111q76 0 135 42q59 43 96 113q71 135 99 273q28 139 18 245l-471 -620
q47 -53 123 -53zM822 956q-153 0 -230 -147t-100 -277q-29 -130 -21 -243l469 616q-39 51 -118 51z" />
    <glyph glyph-name="Ugrave.sc" unicode="&#xf7f9;" 
d="M786 1464l318 -207l-72 -90l-348 168zM638 111q112 0 166 53t81 176l155 727h138l-170 -793q-27 -120 -130 -206q-104 -86 -268 -86t-230 87t-40 214l168 784h137l-156 -727q-25 -121 5 -175q32 -54 144 -54z" />
    <glyph glyph-name="Uacute.sc" unicode="&#xf7fa;" 
d="M1075 1464l45 -129l-418 -168l-34 90zM638 111q112 0 166 53t81 176l155 727h138l-170 -793q-27 -120 -130 -206q-104 -86 -268 -86t-230 87t-40 214l168 784h137l-156 -727q-25 -121 5 -175q32 -54 144 -54z" />
    <glyph glyph-name="Ucircumflex.sc" unicode="&#xf7fb;" 
d="M881 1296l-287 -127l-33 74l352 209l267 -209l-64 -74zM638 111q112 0 166 53t81 176l155 727h138l-170 -793q-27 -120 -130 -206q-104 -86 -268 -86t-230 87t-40 214l168 784h137l-156 -727q-25 -121 5 -175q32 -54 144 -54z" />
    <glyph glyph-name="Udieresis.sc" unicode="&#xf7fc;" 
d="M1100 1434q47 0 63 -40t6 -89t-44 -89t-81 -40t-64 40t-7 88q10 50 45 90t82 40zM723 1434q47 0 63 -40t6 -89t-43 -89q-34 -40 -81 -40t-65 39q-17 39 -7 89t45 90t82 40zM638 111q112 0 166 53t81 176l155 727h138l-170 -793q-27 -120 -130 -206q-104 -86 -268 -86
t-230 87t-40 214l168 784h137l-156 -727q-25 -121 5 -175q32 -54 144 -54z" />
    <glyph glyph-name="Yacute.sc" unicode="&#xf7fd;" 
d="M1075 1464l45 -129l-418 -168l-34 90zM731 545l402 549l112 -68l-475 -614l-88 -412h-137l88 412l-215 614l145 68z" />
    <glyph glyph-name="Thorn.sc" unicode="&#xf7fe;" 
d="M733 352q205 0 246 185q20 100 -27 139t-143 39h-188l-76 -363h188zM842 838q174 0 242 -82t36 -224t-140 -223q-108 -80 -232 -80h-230l-49 -229h-137l227 1067h137l-49 -229h195z" />
    <glyph glyph-name="Ydieresis.sc" unicode="&#xf7ff;" 
d="M1100 1434q47 0 63 -40t6 -89t-44 -89t-81 -40t-64 40t-7 88q10 50 45 90t82 40zM723 1434q47 0 63 -40t6 -89t-43 -89q-34 -40 -81 -40t-65 39q-17 39 -7 89t45 90t82 40zM731 545l402 549l112 -68l-475 -614l-88 -412h-137l88 412l-215 614l145 68z" />
    <glyph glyph-name="fi" unicode="&#xfb01;" 
d="M1333 1067l-26 -123h-150l-174 -821h150l-27 -123h-436l26 123h150l174 821h-498l-67 -319h311l-27 -123h-311l-106 -502h-138l228 1067h921z" />
    <glyph glyph-name="fl" unicode="&#xfb02;" 
d="M1108 1067l-201 -944h328l-27 -123h-465l201 944h-450l-68 -319h311l-26 -123h-312l-106 -502h-137l227 1067h725z" />
    <glyph glyph-name="f_i" 
d="M1333 1067l-26 -123h-150l-174 -821h150l-27 -123h-436l26 123h150l174 821h-498l-67 -319h311l-27 -123h-311l-106 -502h-138l228 1067h921z" />
    <glyph glyph-name="f_l" 
d="M1108 1067l-201 -944h328l-27 -123h-465l201 944h-450l-68 -319h311l-26 -123h-312l-106 -502h-137l227 1067h725z" />
    <glyph glyph-name="a.superior" 
d="M389 483l25 113h655l-25 -113h-655zM893 989l-27 199l-108 -199h135zM905 877h-209l-104 -185l-121 41l363 633h143l92 -633l-137 -41z" />
    <glyph glyph-name="o.superior" 
d="M887 1272q-127 0 -175 -224t76 -225q130 1 178 225t-79 224zM909 1384q135 0 181 -98t15 -238q-30 -140 -117 -238t-222 -99q-135 0 -178 97q-44 98 -14 240t115 239t220 97zM389 483l25 113h655l-25 -113h-655z" />
    <glyph glyph-name="one.superior" 
d="M741 782l99 465l-135 -43l-17 92l307 97l-131 -611h119l-20 -102h-394l21 102h151z" />
    <glyph glyph-name="two.superior" 
d="M899 1282q-109 0 -154 -133l-112 14q35 104 108 163q75 58 173 58t150 -48t35 -132t-132 -190l-254 -232h295l-21 -102h-455l17 86l338 311q4 2 10 8q68 63 77 107q10 44 -12 66q-22 24 -63 24z" />
    <glyph glyph-name="three.superior" 
d="M816 1047q-46 0 -124 -13l19 80l223 168h-279l23 102h452l-18 -86l-211 -161q76 -7 121 -57t28 -131t-118 -171q-56 -49 -158 -78t-235 -20l20 102q332 -4 369 170q10 51 -28 73t-84 22z" />
    <glyph glyph-name="Hbar.sc" 
d="M932 502h-422l-107 -502h-137l166 782h-143l26 123h144l35 162h137l-35 -162h422l35 162h137l-35 -162h143l-26 -123h-144l-165 -782h-138zM991 782h-422l-32 -157h421z" />
    <glyph glyph-name="Tbar.sc" 
d="M1176 944h-289l-64 -301h205l-27 -123h-204l-111 -520h-137l110 520h-204l26 123h205l64 301h-295l26 123h721z" />
    <glyph glyph-name="Eng.sc" 
d="M813 963q-80 -1 -158 -53t-94 -132l-166 -778h-137l227 1067h138l-17 -78q115 96 269 96t209 -103t43 -236q-17 -197 -58 -358q-67 -264 -140 -357t-124 -117q-112 -53 -223 -53l24 123q68 0 109 13t85 62q84 94 150 418q45 193 34 301t-51 146q-40 39 -120 39z" />
    <glyph glyph-name="Ldot.sc" 
d="M1040 467l56 252h168l-56 -252h-168zM348 0l227 1067h138l-201 -944h559l-27 -123h-696z" />
    <glyph glyph-name="IJ.sc" 
d="M815 111q168 0 227 280l144 676h137l-145 -686q-86 -399 -387 -399t-228 364l31 150h137l-24 -123q-53 -262 108 -262zM47 0l27 123h129l174 821h-129l26 123h398l-27 -123h-131l-174 -821h131l-27 -123h-397z" />
    <glyph glyph-name="A.superior" 
d="M389 483l25 113h655l-25 -113h-655zM893 989l-27 199l-108 -199h135zM905 877h-209l-104 -185l-121 41l363 633h143l92 -633l-137 -41z" />
    <glyph glyph-name="O.superior" 
d="M887 1272q-127 0 -175 -224t76 -225q130 1 178 225t-79 224zM909 1384q135 0 181 -98t15 -238q-30 -140 -117 -238t-222 -99q-135 0 -178 97q-44 98 -14 240t115 239t220 97zM389 483l25 113h655l-25 -113h-655z" />
  </font>
</defs>
</svg>
